<?xml version="1.0" encoding="UTF-8"?>
<svg version="1.1" xmlns="http://www.w3.org/2000/svg" width="1874" height="909">
<path d="M0 0 C1.64487928 -0.00467997 1.64487928 -0.00467997 3.32298845 -0.00945449 C6.97461289 -0.01739212 10.6260692 -0.01112735 14.2776947 -0.00482178 C16.90492856 -0.0075335 19.53216165 -0.01109545 22.15939331 -0.01544189 C28.5405506 -0.02430983 34.9216607 -0.0224256 41.3028198 -0.01661661 C46.49081849 -0.01209026 51.67880401 -0.01149142 56.86680412 -0.01366425 C57.60664753 -0.01397071 58.34649094 -0.01427718 59.10875384 -0.01459293 C60.61196292 -0.01523241 62.115172 -0.01588084 63.61838108 -0.01653811 C77.69563578 -0.02223369 91.77286439 -0.01569545 105.85011481 -0.00493738 C117.91745919 0.00399928 129.98476508 0.00244364 142.05210876 -0.0067749 C156.08233744 -0.017488 170.11254328 -0.02168639 184.14277548 -0.01555037 C185.6399879 -0.01491331 187.13720033 -0.01428457 188.63441277 -0.01366425 C189.73926066 -0.01320142 189.73926066 -0.01320142 190.86642872 -0.01272924 C196.04604986 -0.01100556 201.22565646 -0.01391031 206.40527534 -0.01862335 C213.38123666 -0.02483171 220.3571242 -0.02038529 227.33307838 -0.00883484 C229.89165883 -0.00619262 232.45024539 -0.00694587 235.00882339 -0.01136017 C238.50409275 -0.01683413 241.99913014 -0.00995878 245.49438477 0 C247.00899083 -0.00669217 247.00899083 -0.00669217 248.55419499 -0.01351953 C258.813335 0.04308298 266.65075873 1.60429137 274.68370056 8.25396729 C278.465659 12.50867053 278.57085062 17.7528407 278.68370056 23.25396729 C278.25022312 27.14102847 277.4207711 30.90002112 276.54771423 34.70977783 C276.30620667 35.81989164 276.06469912 36.93000546 275.81587315 38.07375908 C275.00883154 41.76605514 274.18025885 45.45317096 273.35166931 49.14068604 C272.76837548 51.78087734 272.1897598 54.42208813 271.61100769 57.0632782 C270.36768127 62.7261294 269.11353391 68.3864925 267.85188293 74.04528809 C266.01855156 82.26874611 264.20251257 90.49594823 262.39119732 98.72428036 C260.18362448 108.75228602 257.97303296 118.77961781 255.75326538 128.80493164 C255.58249766 129.57618692 255.41172995 130.34744221 255.23578745 131.14206886 C255.06531836 131.91195578 254.89484926 132.68184269 254.71921444 133.47505951 C250.67102933 151.75789791 246.65639253 170.04782272 242.66807556 188.34381104 C242.25393811 190.24352535 242.25393811 190.24352535 241.83143425 192.18161774 C240.73396338 197.21641054 239.63663975 202.25123538 238.53964901 207.28613281 C236.66859396 215.87248445 234.79302831 224.45784084 232.91441345 233.0425415 C232.65254399 234.23921196 232.39067453 235.43588242 232.12086964 236.66881561 C231.33586429 240.25580214 230.55080204 243.84277621 229.76573181 247.42974854 C226.47908876 262.44651755 223.20012941 277.46489261 219.94107151 292.48767471 C218.06011852 301.15787534 216.17399412 309.82693857 214.28379726 318.49512863 C212.99142365 324.42368338 211.70618261 330.35371977 210.42667484 336.28506374 C209.65022516 339.87554749 208.86656338 343.46442772 208.08078957 347.05288124 C207.72397912 348.68926807 207.37011652 350.32630117 207.01956749 351.96404076 C201.72731302 376.66803281 201.72731302 376.66803281 192.68370056 383.25396729 C185.91416751 387.17550543 179.77882 390.36899583 171.87781334 390.39098167 C170.90763216 390.39605622 169.93745099 390.40113076 168.93787038 390.40635908 C167.34305379 390.40710571 167.34305379 390.40710571 165.71601868 390.40786743 C164.58442908 390.41224969 163.45283948 390.41663194 162.28695929 390.42114699 C158.48089091 390.4345417 154.67484569 390.44071539 150.86875916 390.44683838 C148.14551005 390.45421283 145.4222658 390.46300271 142.69902039 390.47161865 C134.51666861 390.49612562 126.33431079 390.51076715 118.15193361 390.52367872 C115.84019315 390.52739185 113.52845329 390.53136498 111.21671343 390.53543139 C96.85554827 390.56066872 82.49438213 390.58271786 68.13319969 390.59515953 C64.80774812 390.59808914 61.48229659 390.60105081 58.15684509 390.60406494 C57.3303393 390.60481099 56.5038335 390.60555704 55.65228207 390.6063257 C42.26705072 390.61897604 28.88195229 390.65219587 15.49678306 390.69386677 C1.74887639 390.73631549 -11.99896227 390.75985793 -25.74693429 390.76508009 C-33.46364477 390.76849084 -41.18014748 390.78020623 -48.89679337 390.81318283 C-55.46944078 390.84122493 -62.04183783 390.85216453 -68.61454041 390.84098737 C-71.9659157 390.83581108 -75.31634359 390.84136144 -78.66771317 390.86345291 C-82.30781613 390.88613901 -85.94660561 390.87784992 -89.5867157 390.86196899 C-90.63654243 390.87585108 -91.68636916 390.88973317 -92.76800883 390.90403593 C-100.45781348 390.82157104 -107.20668028 389.02313172 -113.00509989 383.70507276 C-117.99821832 377.97624996 -117.67817221 372.46923898 -117.31629944 365.25396729 C-116.88432299 361.94799394 -116.20458289 358.7295628 -115.4657135 355.47979736 C-115.2662273 354.55928935 -115.0667411 353.63878134 -114.86120987 352.69037914 C-114.19561381 349.63226889 -113.51378785 346.57801926 -112.83192444 343.52349854 C-112.34756054 341.3137579 -111.86423135 339.10379025 -111.3818512 336.89361572 C-110.06595686 330.87786948 -108.73604523 324.86529822 -107.40380859 318.85315323 C-106.13215029 313.1035198 -104.87131254 307.35152313 -103.61060572 301.59948003 C-101.23539032 290.76326842 -98.85277338 279.92870294 -96.4647727 269.09530222 C-92.677391 251.91277926 -88.91458255 234.72494444 -85.16004944 217.53521729 C-84.86341957 216.17725281 -84.56678553 214.81928925 -84.27014732 213.4613266 C-84.12334087 212.78926878 -83.97653443 212.11721097 -83.8252793 211.42478776 C-83.23278762 208.71246712 -82.64029403 206.0001469 -82.04779017 203.28782892 C-81.75218552 201.93461272 -81.4565909 200.58139432 -81.16100633 199.22817373 C-78.95655482 189.13614751 -76.74867454 179.04487633 -74.53822327 168.9541626 C-74.24616247 167.62084585 -73.95410194 166.28752905 -73.66204166 164.95421219 C-73.22601748 162.96370242 -72.78998992 160.97319339 -72.35395795 158.98268533 C-67.80326456 138.20846759 -63.26297058 117.43205841 -58.74643326 96.6503849 C-57.27493607 89.88181971 -55.80099247 83.11378675 -54.32705879 76.34575176 C-52.96797257 70.10344755 -51.61311811 63.86024509 -50.26155376 57.61630821 C-49.44149996 53.83271521 -48.61738979 50.05001444 -47.79212379 46.26755524 C-47.41654084 44.54205393 -47.04266461 42.81618004 -46.67069054 41.08989716 C-40.8823453 14.23741425 -40.8823453 14.23741425 -29.69911194 6.42584229 C-20.2051914 0.88548072 -10.8302012 -0.04795832 0 0 Z " fill="#003D83" transform="translate(517.3162994384766,182.74603271484375)"/>
<path d="M0 0 C1.45527176 -0.00761181 1.45527176 -0.00761181 2.93994296 -0.0153774 C4.53475955 -0.01612404 4.53475955 -0.01612404 6.16179466 -0.01688576 C7.29338426 -0.02126801 8.42497386 -0.02565027 9.59085405 -0.03016531 C13.39692243 -0.04356002 17.20296765 -0.04973371 21.00905418 -0.0558567 C23.73230329 -0.06323115 26.45554754 -0.07202103 29.17879295 -0.08063698 C37.36114473 -0.10514395 45.54350255 -0.11978547 53.72587973 -0.13269705 C56.03762019 -0.13641017 58.34936005 -0.1403833 60.66109991 -0.14444971 C75.02226507 -0.16968705 89.38343121 -0.19173619 103.74461365 -0.20417786 C107.07006522 -0.20710746 110.39551675 -0.21006914 113.72096825 -0.21308327 C114.54747404 -0.21382932 115.37397984 -0.21457537 116.22553127 -0.21534403 C129.61076262 -0.22799437 142.99586105 -0.26121419 156.38103028 -0.3028851 C170.12893695 -0.34533382 183.87677561 -0.36887626 197.62474763 -0.37409842 C205.34145811 -0.37750917 213.05796082 -0.38922456 220.7746067 -0.42220116 C227.34725412 -0.45024326 233.91965117 -0.46118286 240.49235375 -0.4500057 C243.84372904 -0.4448294 247.19415693 -0.45037977 250.5455265 -0.47247124 C254.18562947 -0.49515734 257.82441895 -0.48686825 261.46452904 -0.47098732 C262.51435577 -0.48486941 263.5641825 -0.49875149 264.64582217 -0.51305425 C272.33562682 -0.43058937 279.08449362 1.36784995 284.88291323 6.68590891 C289.24333734 11.68881391 289.53504783 16.03225339 289.46904564 22.39757347 C288.89789029 30.1660216 286.97293742 37.70503197 285.25270653 45.28545189 C284.82141215 47.23040199 284.39130953 49.17561668 283.962286 51.12106895 C283.02799247 55.346776 282.08594178 59.57065137 281.1378994 63.79329491 C279.59707132 70.65755789 278.07399769 77.52568646 276.55397606 84.39458275 C274.89919781 91.86959473 273.24361571 99.34442059 271.58278465 106.81809044 C265.499983 134.19577449 259.52644319 161.59714392 253.55581188 188.99946976 C251.40201457 198.88363468 249.24392442 208.76685353 247.08268082 218.64939284 C245.60889368 225.3886438 244.13573884 232.12803301 242.66286278 238.86748314 C242.50282666 239.59975168 242.34279054 240.33202022 242.17790484 241.08647871 C237.90989889 260.61757203 233.6759443 280.15547006 229.48633003 299.70354843 C228.02870338 306.49731414 226.56342278 313.28943339 225.09777832 320.08147335 C223.76659136 326.25538913 222.44891339 332.43197685 221.14196205 338.61106586 C220.3515053 342.33278286 219.54835458 346.05167213 218.74149132 349.76986313 C218.37830083 351.45637684 218.02046449 353.14405472 217.66864586 354.83297729 C215.07143296 367.28538904 211.86028846 376.33104224 201.19411278 384.13701439 C192.25972327 389.90751546 182.21351531 390.43647543 171.8465786 390.3977108 C170.74661442 390.40153635 169.64665025 390.40536189 168.51335382 390.40930337 C164.85025004 390.41957138 161.18730481 390.41565302 157.5241909 390.41167259 C154.88872323 390.41602244 152.25326694 390.4211425 149.61780357 390.42716026 C143.21626244 390.43987193 136.81476333 390.44170546 130.4132117 390.43936 C125.20805831 390.43757307 120.00291761 390.4393345 114.79776573 390.44358444 C113.68427066 390.44447723 113.68427066 390.44447723 112.54828075 390.44538805 C111.0400004 390.44659986 109.53172005 390.44781399 108.02343971 390.44903042 C93.89799111 390.45989191 79.77256642 390.4577498 65.64711648 390.45164558 C52.73759117 390.4464751 39.82814129 390.45773778 26.9186309 390.47674379 C13.64513323 390.49613511 0.37167123 390.50437609 -12.90184069 390.50062054 C-20.3467644 390.49871079 -27.7916239 390.50117421 -35.23653603 390.51533508 C-41.57295121 390.5272662 -47.9092626 390.52863426 -54.24567926 390.51654492 C-57.47534054 390.51066891 -60.70477363 390.51115852 -63.93442917 390.52154732 C-67.44257872 390.53201687 -70.95022152 390.52391182 -74.45835304 390.51123619 C-75.46906852 390.51861048 -76.479784 390.52598476 -77.52112722 390.53358251 C-86.7412248 390.46369752 -95.98871495 388.8212613 -102.80588722 382.13701439 C-106.91201331 375.97782525 -107.26489226 369.6874697 -105.939188 362.61211205 C-105.47332408 360.42219247 -104.99287821 358.23534547 -104.50119972 356.05107689 C-104.23592476 354.82363762 -103.9706498 353.59619835 -103.6973362 352.33156395 C-102.95073442 348.8791099 -102.18760939 345.43048138 -101.42200661 341.98219872 C-100.57483928 338.15244228 -99.74319779 334.31930932 -98.90940285 330.48662376 C-97.19137376 322.60172495 -95.45858361 314.72013005 -93.72180748 306.83934212 C-91.48662835 296.69416139 -89.2657583 286.54585842 -87.04470634 276.39757729 C-83.75545651 261.36992923 -80.46216259 246.34317348 -77.16086769 231.31816673 C-70.91318913 202.88190947 -64.68374669 174.44177511 -58.47776222 145.99638939 C-58.12334306 144.37200952 -57.76892208 142.74763004 -57.41449928 141.12325096 C-54.10740708 125.965955 -50.801386 110.80842578 -47.49774146 95.65037799 C-46.1927947 89.66310968 -44.8871885 83.67598539 -43.58113503 77.68895841 C-42.82509627 74.22304843 -42.06939942 70.75706481 -41.31463814 67.29087639 C-39.97206456 61.1261804 -38.62513123 54.96253616 -37.26499367 48.80168724 C-36.30479329 44.44734333 -35.37673098 40.08811235 -34.47471046 35.72136497 C-34.05622729 33.75149596 -33.63765364 31.78164616 -33.21897316 29.81181908 C-33.0468745 28.94135571 -32.87477585 28.07089233 -32.69746208 27.17405128 C-30.63747878 17.64963852 -25.7657436 10.73734191 -17.80588722 5.13701439 C-12.03197803 2.0031492 -6.59889341 0.0183625 0 0 Z " fill="#C70902" transform="translate(889.80588722229,180.8629856109619)"/>
<path d="M0 0 C1.64487928 -0.00467997 1.64487928 -0.00467997 3.32298845 -0.00945449 C6.97461289 -0.01739212 10.6260692 -0.01112735 14.2776947 -0.00482178 C16.90492856 -0.0075335 19.53216165 -0.01109545 22.15939331 -0.01544189 C28.5405506 -0.02430983 34.9216607 -0.0224256 41.3028198 -0.01661661 C46.49081849 -0.01209026 51.67880401 -0.01149142 56.86680412 -0.01366425 C57.60664753 -0.01397071 58.34649094 -0.01427718 59.10875384 -0.01459293 C60.61196292 -0.01523241 62.115172 -0.01588084 63.61838108 -0.01653811 C77.69563578 -0.02223369 91.77286439 -0.01569545 105.85011481 -0.00493738 C117.91745919 0.00399928 129.98476508 0.00244364 142.05210876 -0.0067749 C156.08233744 -0.017488 170.11254328 -0.02168639 184.14277548 -0.01555037 C185.6399879 -0.01491331 187.13720033 -0.01428457 188.63441277 -0.01366425 C189.73926066 -0.01320142 189.73926066 -0.01320142 190.86642872 -0.01272924 C196.04604986 -0.01100556 201.22565646 -0.01391031 206.40527534 -0.01862335 C213.38123666 -0.02483171 220.3571242 -0.02038529 227.33307838 -0.00883484 C229.89165883 -0.00619262 232.45024539 -0.00694587 235.00882339 -0.01136017 C238.50409275 -0.01683413 241.99913014 -0.00995878 245.49438477 0 C247.00899083 -0.00669217 247.00899083 -0.00669217 248.55419499 -0.01351953 C258.813335 0.04308298 266.65075873 1.60429137 274.68370056 8.25396729 C278.4656212 12.508628 278.54243856 17.75584826 278.68370056 23.25396729 C278.31272239 26.81784632 277.56527319 30.25136214 276.76304626 33.74078369 C276.43478804 35.25294464 276.43478804 35.25294464 276.09989834 36.7956543 C275.36745463 40.15228009 274.61347386 43.50368424 273.85948181 46.85552979 C273.32837261 49.26900183 272.79864355 51.68277794 272.27018738 54.09683228 C271.12938248 59.29428514 269.97943744 64.48958408 268.82118225 69.6831665 C267.12771556 77.2772358 265.45185086 84.87510797 263.7805537 92.47408342 C261.22222786 104.1053856 258.65470992 115.73462965 256.08045018 127.36241484 C252.14487181 145.14063095 248.24240938 162.92597351 244.35557556 180.71490479 C244.20731418 181.39344639 244.05905279 182.07198799 243.90629864 182.77109146 C242.56799201 188.8963194 241.22991785 195.02159811 239.89217758 201.14694977 C237.98774708 209.86609882 236.07869815 218.58422629 234.16657782 227.30169201 C228.85181233 251.5332636 223.55552391 275.76816333 218.37361336 300.02855682 C217.6633503 303.35141207 216.95135355 306.67389033 216.23861694 309.99621582 C216.01028451 311.06060001 215.78195208 312.12498421 215.54670048 313.22162247 C215.09590632 315.32272275 214.64502766 317.4238049 214.19406033 319.52486801 C212.91845733 325.47349242 211.65498428 331.42452022 210.40121651 337.37778282 C209.64147731 340.97201634 208.87071047 344.56381893 208.09690857 348.15504837 C207.74784011 349.78661394 207.4034653 351.41919268 207.06440735 353.05286789 C204.32039634 366.26054896 201.2025633 377.17022731 189.68370056 385.25396729 C183.93482217 388.42734816 178.46903071 390.37264054 171.87781334 390.39098167 C170.90763216 390.39605622 169.93745099 390.40113076 168.93787038 390.40635908 C167.34305379 390.40710571 167.34305379 390.40710571 165.71601868 390.40786743 C164.58442908 390.41224969 163.45283948 390.41663194 162.28695929 390.42114699 C158.48089091 390.4345417 154.67484569 390.44071539 150.86875916 390.44683838 C148.14551005 390.45421283 145.4222658 390.46300271 142.69902039 390.47161865 C134.51666861 390.49612562 126.33431079 390.51076715 118.15193361 390.52367872 C115.84019315 390.52739185 113.52845329 390.53136498 111.21671343 390.53543139 C96.85554827 390.56066872 82.49438213 390.58271786 68.13319969 390.59515953 C64.80774812 390.59808914 61.48229659 390.60105081 58.15684509 390.60406494 C57.3303393 390.60481099 56.5038335 390.60555704 55.65228207 390.6063257 C42.26705072 390.61897604 28.88195229 390.65219587 15.49678306 390.69386677 C1.74887639 390.73631549 -11.99896227 390.75985793 -25.74693429 390.76508009 C-33.46364477 390.76849084 -41.18014748 390.78020623 -48.89679337 390.81318283 C-55.46944078 390.84122493 -62.04183783 390.85216453 -68.61454041 390.84098737 C-71.9659157 390.83581108 -75.31634359 390.84136144 -78.66771317 390.86345291 C-82.30781613 390.88613901 -85.94660561 390.87784992 -89.5867157 390.86196899 C-90.63654243 390.87585108 -91.68636916 390.88973317 -92.76800883 390.90403593 C-100.45781348 390.82157104 -107.20668028 389.02313172 -113.00509989 383.70507276 C-117.99575816 377.9790726 -117.6990091 372.46839335 -117.31629944 365.25396729 C-116.83027027 361.67213602 -116.08162258 358.17736545 -115.28211975 354.65362549 C-115.06313491 353.64537499 -114.84415007 352.6371245 -114.61852932 351.59832096 C-113.88800136 348.24798517 -113.14122479 344.90149149 -112.39442444 341.55474854 C-111.86507792 339.14258613 -111.33676968 336.73019568 -110.80941772 334.31759644 C-109.67244201 329.12657525 -108.5285556 323.93715248 -107.37834167 318.74905396 C-105.69665243 311.16333478 -104.02806765 303.57477837 -102.3628279 295.98543322 C-99.81317552 284.3660407 -97.25642362 272.74822745 -94.69454324 261.1315254 C-90.77251395 243.34623001 -86.87690873 225.55523422 -82.99208069 207.76177979 C-82.6925639 206.39000853 -82.39304532 205.01823767 -82.09352493 203.64646721 C-81.94552716 202.96864561 -81.79752939 202.29082401 -81.64504683 201.59246236 C-81.04933043 198.86412185 -80.4536076 196.13578273 -79.85786939 193.40744698 C-79.56161507 192.05065847 -79.26537185 190.69386754 -78.96913981 189.33707416 C-76.77175047 179.27303344 -74.56968657 169.2100246 -72.364151 159.14776611 C-72.07420061 157.82483599 -71.78425119 156.50190565 -71.49430275 155.17897511 C-70.91912014 152.55468796 -70.34392611 149.93040331 -69.76872635 147.30611992 C-69.48665203 146.01918299 -69.20457771 144.73224606 -68.91395569 143.40631104 C-68.63398617 142.12904711 -68.35401665 140.85178318 -68.0655632 139.53581429 C-64.59443184 123.69694453 -61.14063448 107.85446637 -57.71105957 92.00654602 C-56.07080028 84.42731287 -54.42382692 76.84954439 -52.77484608 69.2722044 C-51.49205365 63.37473606 -50.21827021 57.47542319 -48.951684 51.57445431 C-48.18610232 48.0184449 -47.4116747 44.46440715 -46.6346302 40.91088676 C-46.28301869 39.29422801 -45.93508913 37.67676301 -45.59127617 36.05842781 C-42.67334053 22.33713727 -39.47246943 12.91957011 -27.30458069 4.93365479 C-18.84916209 0.30289815 -9.43098812 -0.04176232 0 0 Z " fill="#399C1E" transform="translate(1281.3162994384766,182.74603271484375)"/>
<path d="M0 0 C9.6581817 -0.11750477 19.31167538 -0.09610095 28.96966553 0.02606201 C29.99238556 0.03896271 29.99238556 0.03896271 31.0357666 0.05212402 C115.54936516 1.17955896 201.1587541 10.25488569 352.05023193 64.0133667 C354.18212737 65.13815712 356.33044324 66.2272195 358.48138428 67.31512451 C390.35529845 83.56258425 420.99097959 105.47682486 442.96966553 134.02606201 C443.74825928 135.01477295 444.52685303 136.00348389 445.32904053 137.02215576 C469.80184856 169.01297902 478.80770601 207.74442692 473.84466553 247.40106201 C465.63695778 306.85012062 432.92469085 359.74866893 397.55999756 406.89080811 C396.45941286 408.36850442 395.3726946 409.85659237 394.29730225 411.35272217 C393.76508057 412.08668213 393.23285889 412.82064209 392.68450928 413.57684326 C391.97282593 414.5713147 391.97282593 414.5713147 391.24676514 415.58587646 C390.82532227 416.0611377 390.40387939 416.53639893 389.96966553 417.02606201 C389.30966553 417.02606201 388.64966553 417.02606201 387.96966553 417.02606201 C387.42020182 404.8150704 386.907354 392.60297786 386.42771912 380.38903809 C386.16863888 373.8343926 385.89498784 367.2807429 385.5980835 360.72772217 C385.30507452 354.25800957 385.03481849 347.78771926 384.78673172 341.31612492 C384.65066194 337.7873399 384.50473835 334.25964714 384.33325195 330.73239136 C383.55139842 314.48921406 383.97756175 299.91790174 388.38925171 284.19366455 C389.61846333 279.60307394 390.23260591 274.92570603 390.78216553 270.21356201 C390.89834229 269.23403564 391.01451904 268.25450928 391.13421631 267.24530029 C395.32501266 228.38013881 388.66646354 187.37044839 363.96966553 156.02606201 C363.52928955 155.4637085 363.08891357 154.90135498 362.63519287 154.32196045 C337.36258558 122.41254673 299.27124643 105.68130463 261.96966553 92.02606201 C261.30537537 91.78200623 260.64108521 91.53795044 259.95666504 91.28649902 C166.28798312 56.91107712 68.0104792 36.11309993 -137.03033447 10.02606201 C-134.12869606 7.1244236 -130.91750023 7.3964105 -127.00299072 7.06121826 C-126.16836807 6.98333069 -125.33374542 6.90544312 -124.47383118 6.82519531 C-121.68101822 6.56888584 -118.88716384 6.3277407 -116.09283447 6.08856201 C-114.6420047 5.96074844 -114.6420047 5.96074844 -113.16186523 5.83035278 C-75.51995245 2.52451379 -37.78377327 0.48500439 0 0 Z " fill="#C60902" transform="translate(1399.0303344726563,-0.02606201171875)"/>
<path d="M0 0 C0.66 0 1.32 0 2 0 C2.99143234 11.02174674 3.38734357 22.04117355 3.75390625 33.09765625 C3.81955369 35.02331663 3.88538873 36.94897062 3.95140076 38.87461853 C4.08842229 42.88941819 4.22352883 46.90427615 4.35717773 50.91918945 C4.52758348 56.03512828 4.70228209 61.15090946 4.87835789 66.26665592 C5.01459486 70.23627087 5.14880307 74.20595242 5.2823925 78.17565727 C5.34602338 80.06090614 5.41020562 81.9461365 5.47497749 83.83134651 C6.4566683 112.51694098 6.4566683 112.51694098 4.7578125 119.8125 C4.49693848 120.97990723 4.23606445 122.14731445 3.96728516 123.35009766 C3.68933105 124.55456543 3.41137695 125.7590332 3.125 127 C0.58477415 138.66255117 -1.41257811 150.07355547 -2 162 C-2.05776611 163.13743652 -2.05776611 163.13743652 -2.11669922 164.29785156 C-3.83568954 204.64708714 8.57194997 241.49951172 35.59375 271.4453125 C71.25368058 309.30504399 125.52967139 324.85110153 173.71893311 340.27008057 C175.22315629 340.7514175 176.72695149 341.23409425 178.23028564 341.71820068 C226.80633189 357.34994801 276.93753527 369.23187091 327 379 C328.43953033 379.28139832 328.43953033 379.28139832 329.90814209 379.56848145 C385.04362579 390.29869745 440.65865096 397.53044664 496.46917725 403.61364746 C502.73685546 404.29947441 509.0031374 404.99786434 515.26953125 405.6953125 C517.54272425 405.94808264 519.81591758 406.20084988 522.08911133 406.45361328 C523.72607596 406.6357265 525.36303959 406.81784881 527 407 C522.99179271 409.18964413 519.19088005 409.579505 514.69921875 409.96484375 C513.85861404 410.04277664 513.01800934 410.12070953 512.15193176 410.20100403 C509.33132121 410.45773097 506.50975041 410.69950006 503.6875 410.9375 C502.19089844 411.06481506 502.19089844 411.06481506 500.6640625 411.19470215 C494.19012483 411.7402272 487.71414148 412.25492395 481.23626709 412.75140381 C479.14238114 412.91224717 477.04865803 413.0752309 474.95513916 413.24078369 C410.61010643 418.32006279 344.28827381 419.01968372 280 413 C279.04714111 412.91278687 278.09428223 412.82557373 277.11254883 412.73571777 C191.03692891 404.82573983 104.24413713 388.08335335 -16 319 C-16.97453125 318.23042969 -17.9490625 317.46085937 -18.953125 316.66796875 C-53.88917304 288.40597184 -79.69235627 251.28742096 -84.625 205.8125 C-90.25969413 133.38106818 -49.40100879 65.69444632 -7.55810547 10.08691406 C-6.47053431 8.63022991 -5.39773535 7.16245086 -4.33642578 5.68652344 C-3.53760986 4.5848584 -3.53760986 4.5848584 -2.72265625 3.4609375 C-2.24707275 2.79626465 -1.77148926 2.1315918 -1.28149414 1.44677734 C-0.85860107 0.96934082 -0.43570801 0.4919043 0 0 Z " fill="#C60902" transform="translate(85,493)"/>
<path d="M0 0 C21.4293022 -0.05840342 42.84760581 0.2116567 64.27346611 0.57505417 C70.16349911 0.67491449 76.05345393 0.76777777 81.94384766 0.84375 C87.72847454 0.91850449 93.51256773 1.01135989 99.29672623 1.11612701 C101.4641801 1.15251689 103.63174401 1.18297419 105.79937363 1.20668793 C125.39929946 1.42908318 147.16117654 2.00521296 165 11 C166.01835938 11.50273437 167.03671875 12.00546875 168.0859375 12.5234375 C183.5639937 20.82778503 193.50193015 34.50579045 199 51 C206.98600928 78.55012839 200.52214015 108.42141554 187.19140625 133.24609375 C178.37717818 148.80178851 165.82466747 159.96150149 150 168 C149.11570312 168.47179687 148.23140625 168.94359375 147.3203125 169.4296875 C131.10371448 177.177083 110.67045483 179.16548378 92.8828125 179.1328125 C91.71281708 179.13376923 90.54282166 179.13472595 89.33737183 179.13571167 C86.85788927 179.13639073 84.3784049 179.1345556 81.89892578 179.13037109 C78.19950076 179.12510603 74.50020208 179.13027981 70.80078125 179.13671875 C54.84603021 179.14071884 38.93721527 178.74375188 23 178 C22.80898964 179.93138824 22.80898964 179.93138824 22.61412048 181.90179443 C22.06160583 186.85386026 21.16852651 191.69138826 20.17407227 196.57128906 C19.99182098 197.48140747 19.8095697 198.39152588 19.62179565 199.32922363 C19.02397161 202.30883915 18.4204332 205.28726124 17.81640625 208.265625 C17.39643609 210.34824543 16.97667519 212.43090806 16.55711365 214.51361084 C15.67959819 218.86474861 14.799174 223.21528523 13.91674805 227.56542969 C12.78660873 233.1382278 11.66435351 238.71258 10.54432774 244.28741837 C9.68038513 248.58262123 8.81198946 252.87691452 7.94227409 257.17095184 C7.52659049 259.22634566 7.11236033 261.28203398 6.69961739 263.33802032 C6.12275228 266.20839082 5.53982937 269.07746641 4.95532227 271.94628906 C4.78641983 272.7931427 4.6175174 273.63999634 4.4434967 274.51251221 C4.28232361 275.29730957 4.12115051 276.08210693 3.95509338 276.89068604 C3.81812325 277.56757603 3.68115313 278.24446602 3.54003239 278.94186783 C2.9054298 281.36041906 1.92863344 283.6784164 1 286 C-18.14 286 -37.28 286 -57 286 C-56.42522527 281.97657688 -55.86686877 278.08486983 -55.06523132 274.12361145 C-54.88245195 273.21537974 -54.69967258 272.30714804 -54.51135445 271.37139416 C-54.31255621 270.39394395 -54.11375797 269.41649374 -53.90893555 268.40942383 C-53.69666258 267.35751767 -53.48438961 266.30561152 -53.26568413 265.22182941 C-52.55786608 261.71652268 -51.8472637 258.21178616 -51.13671875 254.70703125 C-50.63204205 252.20999031 -50.12756557 249.7129089 -49.62327576 247.21578979 C-48.54394164 241.87276389 -47.46352116 236.52995958 -46.38214111 231.18734741 C-43.66712888 217.77308914 -40.95930271 204.3573788 -38.25101185 190.94176221 C-37.81490633 188.78163306 -37.37872682 186.62151887 -36.94252777 184.46140862 C-31.30505061 156.54309174 -25.70473633 128.61741615 -20.125 100.6875 C-19.7110939 98.61597621 -19.29718401 96.54445317 -18.88327026 94.47293091 C-16.94846381 84.78922948 -15.01446035 75.10536792 -13.08105469 65.42138672 C-11.16272601 55.81309262 -9.2421627 46.20524655 -7.3203125 36.59765625 C-7.18314442 35.91193228 -7.04597633 35.22620831 -6.90465164 34.51970482 C-6.25872212 31.29068543 -5.61274232 28.06167611 -4.96673584 24.83267212 C-3.8786361 19.3937023 -2.79088405 13.95466296 -1.703125 8.515625 C-1.13542081 5.67708251 -0.56771048 2.83854124 0 0 Z " fill="#FDFEFD" transform="translate(1308,229)"/>
<path d="M0 0 C20.01727573 -0.17662302 39.99506501 0.37192255 60 1 C61.32847964 7.42777329 62.5115524 13.85768782 63.515625 20.34375 C63.71996658 21.6494545 63.71996658 21.6494545 63.92843628 22.98153687 C64.37157259 25.8206247 64.81102763 28.66026558 65.25 31.5 C65.40273376 32.48309143 65.55546753 33.46618286 65.71282959 34.47906494 C68.09332485 49.81279114 70.33630558 65.16293178 72.49841309 80.52880859 C74.22215996 92.76769443 76.08897543 104.96904323 78.10595703 117.16357422 C79.89457866 128.08770554 81.45742624 139.03885506 83 150 C84.89227213 163.44241704 86.89789354 176.85137902 89.10766602 190.24584961 C90.98357164 201.69714014 92.65633947 213.17448801 94.31182861 224.65939331 C95.7152843 234.38915718 97.15626817 244.11014208 98.71484375 253.81640625 C98.85472214 254.68916702 98.99460052 255.5619278 99.13871765 256.46113586 C99.8080843 260.62791579 100.48483851 264.7933332 101.17163086 268.95727539 C101.41402965 270.45326672 101.65630529 271.949278 101.8984375 273.4453125 C102.11161621 274.73969238 102.32479492 276.03407227 102.54443359 277.36767578 C103 281 103 281 103 288 C86.17 288 69.34 288 52 288 C50.95365658 280.84375838 49.90844249 273.68750006 48.87365723 266.52960205 C48.39137655 263.19572838 47.90712974 259.8621686 47.41796875 256.52929688 C46.85663993 252.6973685 46.30263145 248.86444114 45.75 245.03125 C45.57500977 243.84760864 45.40001953 242.66396729 45.21972656 241.44445801 C44.37907383 235.56306035 43.79600707 229.94129418 44 224 C43.1234375 224.01047363 42.246875 224.02094727 41.34375 224.03173828 C17.37565335 224.27227177 -6.54684796 223.7838443 -30.5 223 C-31.23105957 222.97608437 -31.96211914 222.95216873 -32.71533203 222.92752838 C-41.81058951 222.62900541 -50.90545783 222.31961157 -60 222 C-60.24153809 222.80977295 -60.48307617 223.6195459 -60.73193359 224.45385742 C-62.26450078 228.73967535 -64.22845783 232.68605466 -66.2890625 236.73828125 C-66.71118011 237.57731491 -67.13329773 238.41634857 -67.56820679 239.2808075 C-68.9166591 241.95998034 -70.2704109 244.63642538 -71.625 247.3125 C-73.39087872 250.80715914 -75.1540395 254.30316925 -76.9140625 257.80078125 C-77.34285706 258.65278107 -77.77165161 259.50478088 -78.21343994 260.38259888 C-82.29129261 268.51920533 -86.17581145 276.74166685 -90 285 C-108.68226584 285.15240543 -127.32954697 284.5951751 -146 284 C-144.10361014 279.1391752 -141.84036746 274.53393026 -139.5 269.875 C-138.92378906 268.71677734 -138.92378906 268.71677734 -138.3359375 267.53515625 C-135.38951228 261.6515713 -132.33756023 255.82644603 -129.265625 250.0078125 C-124.6094823 241.18755734 -120.03856164 232.32594262 -115.49966431 223.44488525 C-113.32405699 219.18845398 -111.14453707 214.93402747 -108.96484375 210.6796875 C-108.53471481 209.84009491 -108.10458588 209.00050232 -107.66142273 208.13546753 C-103.52016714 200.0561545 -99.34336227 191.99560337 -95.15722656 183.93945312 C-90.58459205 175.13666345 -86.03937957 166.31996535 -81.5 157.5 C-76.34881885 147.49190059 -71.18654012 137.48983467 -66 127.5 C-60.46987902 116.84792036 -54.96740159 106.18185235 -49.47412109 95.51074219 C-43.88763664 84.65886444 -38.28694568 73.81446988 -32.67529297 62.97558594 C-29.3211964 56.49558993 -25.9744581 50.0118757 -22.63671875 43.5234375 C-22.08456444 42.45013435 -22.08456444 42.45013435 -21.52125549 41.35514832 C-20.96920692 40.28204155 -20.96920692 40.28204155 -20.40600586 39.18725586 C-13.66838486 26.09044059 -6.90377626 13.01031055 0 0 Z " fill="#FEFDFD" transform="translate(976,225)"/>
<path d="M0 0 C2.15881192 -0.00218282 4.31710822 -0.02039418 6.47583008 -0.03930664 C18.93893308 -0.09255404 30.53923384 1.29580773 42.3605957 5.37280273 C43.26350342 5.6817749 44.16641113 5.99074707 45.09667969 6.30908203 C68.05089432 14.40271716 83.96034401 29.57561338 94.8605957 51.18530273 C100.24551168 62.96218392 103.50874869 75.19033916 102.8605957 88.18530273 C95.11473614 88.96544059 87.38937058 89.45438911 79.6105957 89.74780273 C78.52464111 89.79026123 77.43868652 89.83271973 76.31982422 89.87646484 C68.16167311 90.17794459 60.0235505 90.30476061 51.8605957 90.18530273 C51.54606445 88.97874023 51.2315332 87.77217773 50.9074707 86.52905273 C50.47563118 84.91434841 50.0433139 83.29977181 49.6105957 81.68530273 C49.40563477 80.89381836 49.20067383 80.10233398 48.98950195 79.28686523 C46.27433255 69.24896624 42.26294693 60.79780752 33.2980957 55.06030273 C22.98684333 49.35095543 13.52124144 47.53230899 1.7980957 47.68530273 C0.60893555 47.66983398 -0.58022461 47.65436523 -1.80541992 47.63842773 C-12.6581777 47.68610597 -21.57954015 49.81027998 -29.5534668 57.45874023 C-34.92473027 63.30627337 -36.57638067 69.8164736 -36.3894043 77.59936523 C-35.71751016 84.54927024 -33.13013174 91.2053544 -28.1394043 96.18530273 C-15.85393309 105.99196753 -1.60187411 113.01101459 12.4230957 119.93530273 C29.64848091 128.45710522 46.62013594 137.39674198 61.8605957 149.18530273 C62.72813477 149.84916992 63.59567383 150.51303711 64.48950195 151.19702148 C70.96405231 156.62625728 75.340374 163.55954984 79.1730957 170.99780273 C79.49834229 171.61236328 79.82358887 172.22692383 80.15869141 172.86010742 C85.29988216 183.28934194 86.33743383 194.27700178 86.1730957 205.74780273 C86.17631836 206.87637695 86.17954102 208.00495117 86.18286133 209.16772461 C86.11558103 219.80412737 84.97580233 229.8658141 80.7355957 239.68530273 C80.42847656 240.40741943 80.12135742 241.12953613 79.80493164 241.87353516 C70.03372387 264.07074151 52.12853506 280.02548299 29.86791992 288.98754883 C16.63923754 294.01584028 3.83343935 295.52443898 -10.22924805 295.44604492 C-12.50426072 295.43535042 -14.77847833 295.44598696 -17.0534668 295.45874023 C-46.33835513 295.48791438 -74.10054862 287.92451656 -95.8269043 267.52124023 C-112.74300355 250.43369403 -119.30840001 226.88505964 -119.2644043 203.31030273 C-119.23970443 200.60118918 -119.19468469 197.8940422 -119.1394043 195.18530273 C-102.12929629 194.30542922 -85.17081607 194.05645709 -68.1394043 194.18530273 C-68.07470947 194.78366943 -68.01001465 195.38203613 -67.94335938 195.99853516 C-66.25970169 217.26880361 -66.25970169 217.26880361 -55.2487793 234.69702148 C-38.81312784 246.29328668 -17.65703866 246.80235939 1.7355957 244.56030273 C8.43393016 243.38873093 13.98010393 240.48915155 19.8605957 237.18530273 C20.59149414 236.87592773 21.32239258 236.56655273 22.07543945 236.24780273 C24.36620617 234.88437046 24.82216111 233.60980239 25.8605957 231.18530273 C27.12636434 229.16638204 28.42942169 227.17569173 29.73950195 225.18530273 C33.08846001 219.2108549 32.57605636 211.78955494 31.8605957 205.18530273 C27.98287191 193.21975502 20.21981065 187.59797845 9.6730957 181.68530273 C8.77526367 181.17612305 7.87743164 180.66694336 6.95239258 180.14233398 C-1.20643888 175.57957516 -9.5584687 171.4330908 -17.93930054 167.29702759 C-46.01401083 153.42253428 -73.59100588 139.01661902 -84.91674805 107.91577148 C-89.80494595 93.00130185 -90.39272281 73.37923822 -86.1394043 58.18530273 C-85.90608398 57.26491211 -85.67276367 56.34452148 -85.43237305 55.39624023 C-79.80484396 35.91830849 -66.32139784 20.43125226 -49.1394043 10.18530273 C-33.51988834 1.61763576 -17.43833737 -0.00196666 0 0 Z " fill="#FDFDFE" transform="translate(596.139404296875,217.814697265625)"/>
<path d="M0 0 C7.52153565 -0.05128994 15.04302516 -0.08597737 22.56469727 -0.10986328 C25.1161467 -0.11983554 27.66758496 -0.13341817 30.21899414 -0.15087891 C75.13573045 -0.45026511 75.13573045 -0.45026511 87.20703125 9.1875 C93.15635457 15.20163076 95.13502633 22.2083261 95.3125 30.4375 C95.1843429 44.1503092 89.85095088 55.69834078 81 66 C60.97762673 83.64910365 34.36780896 82.45855549 9.25 82.1875 C6.7877687 82.17240922 4.32552835 82.15872867 1.86328125 82.14648438 C-4.09134799 82.11386587 -10.04562977 82.06402288 -16 82 C-15.06159395 70.45692585 -15.06159395 70.45692585 -13.87109375 65.20703125 C-13.64446045 64.18343506 -13.41782715 63.15983887 -13.18432617 62.10522461 C-12.81464722 60.47532593 -12.81464722 60.47532593 -12.4375 58.8125 C-11.89829566 56.37300117 -11.36202541 53.93285262 -10.828125 51.4921875 C-10.6852153 50.83921188 -10.5423056 50.18623627 -10.39506531 49.51347351 C-8.17199949 39.28018953 -6.17832723 28.99828785 -4.15255737 18.72451782 C-3.80966896 16.98558799 -3.46609835 15.24679251 -3.12176514 13.50814819 C-2.8060108 11.91354313 -2.49191849 10.31860776 -2.17974854 8.72329712 C-1.58903248 5.74223679 -0.96224189 2.88672566 0 0 Z " fill="#3A9C1F" transform="translate(1357,278)"/>
<path d="M0 0 C5.33283276 4.54769295 9.49419411 10.35837146 10.37890625 17.42578125 C10.46564685 23.54099365 10.18075033 27.11760809 6.04296875 31.7421875 C3.15435166 33.18649605 1.24649174 33.11907256 -1.95703125 32.7421875 C-7.96251972 28.38820836 -11.65235475 20.65621701 -13.95703125 13.7421875 C-18.84433087 10.99308146 -24.91842129 10.15877439 -30.3984375 11.2109375 C-34.83580685 12.55603793 -38.04313199 13.97840096 -40.95703125 17.7421875 C-42.53158864 20.89130229 -42.30502243 23.26227566 -41.95703125 26.7421875 C-37.51330095 34.97131769 -27.76152566 36.51472546 -19.421875 39.2109375 C-6.46428352 43.40863762 4.64444348 47.09581993 11.96875 59.45703125 C16.48208622 69.05812831 15.91717277 81.05472345 12.54296875 90.9296875 C8.69140692 99.43637443 2.19213479 106.10311786 -6.35546875 109.84765625 C-19.1510452 114.24733644 -33.70020937 114.2062623 -46.14453125 108.6796875 C-54.92548998 103.93322332 -60.37088192 95.96362089 -63.671875 86.74609375 C-65.15903775 81.75972453 -65.20266917 77.80778172 -63.95703125 72.7421875 C-61.92996563 69.79372841 -60.53515848 68.12419449 -56.98828125 67.265625 C-54.89453125 67.1171875 -54.89453125 67.1171875 -50.95703125 67.7421875 C-46.71491292 72.05045972 -44.5485691 77.49441584 -42.1328125 82.94726562 C-39.88431901 87.71747591 -37.8038364 90.25345572 -32.95703125 92.7421875 C-26.36693872 94.65949582 -20.02298801 93.87107033 -13.95703125 90.7421875 C-9.18786403 86.78479343 -7.17569486 84.0017115 -6.58203125 77.8671875 C-6.74641222 73.43712035 -7.87421142 71.04520875 -10.95703125 67.7421875 C-17.51781438 63.176332 -25.42676721 61.27781871 -32.9777832 58.97265625 C-42.6630885 55.97809154 -52.82902625 52.31482922 -58.4609375 43.34765625 C-60.80040322 38.90200487 -62.63367128 34.80816043 -62.95703125 29.7421875 C-63.00730469 29.08992187 -63.05757812 28.43765625 -63.109375 27.765625 C-63.53035259 18.23469245 -61.13062819 9.96575595 -54.8984375 2.6796875 C-40.97929215 -11.21145152 -15.46806952 -11.00559991 0 0 Z " fill="#A4743F" transform="translate(591.95703125,648.2578125)"/>
<path d="M0 0 C1.35216362 -0.00430527 1.35216362 -0.00430527 2.73164368 -0.00869751 C4.63710153 -0.01073533 6.54258043 -0.00522518 8.44799805 0.00732422 C11.33626291 0.02328816 14.22310841 0.00751468 17.11132812 -0.01171875 C18.97005513 -0.00973444 20.82878126 -0.00588689 22.6875 0 C23.5389006 -0.00607269 24.39030121 -0.01214539 25.26750183 -0.0184021 C35.57561271 0.09990019 44.43138044 2.91154116 51.80078125 10.3359375 C59.26434889 19.60647415 59.75862335 32.03987506 58.67578125 43.3984375 C57.08320322 52.54580758 53.82565587 59.35960373 46.67578125 65.3984375 C37.51734349 71.72083043 26.84061824 71.67778767 16.11328125 71.5234375 C14.91380859 71.51441406 13.71433594 71.50539063 12.47851562 71.49609375 C9.54405816 71.47271162 6.61002891 71.4399403 3.67578125 71.3984375 C3.69672852 72.54844238 3.71767578 73.69844727 3.73925781 74.88330078 C3.81187188 79.16588806 3.85765854 83.44842133 3.89550781 87.73144531 C3.91557464 89.58212446 3.9428347 91.43274059 3.97753906 93.28320312 C4.02627558 95.94937727 4.04879912 98.61471037 4.06640625 101.28125 C4.08705139 102.10335968 4.10769653 102.92546936 4.12896729 103.77249146 C4.13104409 109.13666455 3.21676587 112.12657644 -0.32421875 116.3984375 C-3.02237758 118.53835657 -4.31662686 118.39870864 -7.82421875 118.2734375 C-11.70800181 117.30249173 -12.98989909 116.59731999 -15.32421875 113.3984375 C-17.54480084 108.19053224 -17.61462409 103.48233204 -17.59887695 97.92407227 C-17.60398788 96.98834381 -17.60909882 96.05261536 -17.61436462 95.08853149 C-17.62822702 92.00556992 -17.62730644 88.92283272 -17.625 85.83984375 C-17.6288886 83.69042376 -17.63322361 81.54100454 -17.63798523 79.3915863 C-17.64544011 74.89018257 -17.64516132 70.38885727 -17.63989258 65.88745117 C-17.6340972 60.1262335 -17.65103434 54.36533724 -17.67423725 48.60417271 C-17.68898621 44.1662967 -17.68984472 39.72849791 -17.68672752 35.29060173 C-17.68724009 33.16678162 -17.69246568 31.04295712 -17.70253944 28.91916084 C-17.71490965 25.94662855 -17.70810857 22.97471997 -17.6965332 20.00219727 C-17.70417694 19.12976883 -17.71182068 18.25734039 -17.71969604 17.35847473 C-17.67332793 11.9568717 -16.87529753 8.18771276 -14.32421875 3.3984375 C-10.10852239 -0.43241337 -5.3995352 -0.03806023 0 0 Z M3.67578125 18.3984375 C3.67578125 29.6184375 3.67578125 40.8384375 3.67578125 52.3984375 C7.14078125 52.4809375 10.60578125 52.5634375 14.17578125 52.6484375 C15.25150391 52.68485352 16.32722656 52.72126953 17.43554688 52.75878906 C23.58687553 52.82915481 28.6819673 52.25039197 33.67578125 48.3984375 C37.1621037 43.82184693 38.29171225 39.28560351 37.99609375 33.5703125 C37.31193168 28.93135995 35.71649148 25.56529443 32.61328125 22.0859375 C23.71747012 16.97557791 13.73699157 18.3984375 3.67578125 18.3984375 Z " fill="#A4743F" transform="translate(1199.32421875,642.6015625)"/>
<path d="M0 0 C3.47172162 2.71699953 5.22781943 4.69738131 6 9 C6.0910771 10.42060835 6.13465733 11.84475163 6.14044189 13.26826477 C6.14615204 14.11347687 6.15186218 14.95868896 6.15774536 15.82951355 C6.15942215 17.20808281 6.15942215 17.20808281 6.16113281 18.61450195 C6.16858017 20.07617798 6.16858017 20.07617798 6.17617798 21.56738281 C6.19078272 24.79102281 6.19759875 28.0146136 6.203125 31.23828125 C6.20887775 33.48023988 6.21463547 35.7221985 6.22039795 37.9641571 C6.23090307 42.66580433 6.23674897 47.36743448 6.24023438 52.0690918 C6.24571864 58.08817185 6.26974747 64.10702564 6.29820633 70.12603474 C6.31684657 74.7577734 6.32203905 79.3894577 6.32357025 84.0212307 C6.32659406 86.23995386 6.3346134 88.45867614 6.34775543 90.67736244 C6.36484488 93.78418739 6.36292844 96.89046133 6.35644531 99.99731445 C6.3656601 100.91028793 6.37487488 101.82326141 6.3843689 102.76390076 C6.34331318 109.05715631 5.54145869 114.09547578 1.25 119 C-2.20633495 120.53614887 -4.41255492 120.02498431 -8 119 C-11.09942456 115.98434367 -12.47048298 112.98075171 -14 109 C-14.53367187 109.54269531 -15.06734375 110.08539062 -15.6171875 110.64453125 C-22.13759374 116.90547496 -27.6232522 119.43402655 -36.5625 120.375 C-45.66568144 119.38192566 -51.99194497 116.00374023 -58 109 C-67.64542891 94.47932162 -68.99481063 76.39123085 -65.8125 59.625 C-63.52315529 50.26530697 -59.94065051 41.85836642 -52 36 C-44.76250498 31.69834952 -37.27292311 30.97365992 -29 32 C-22.88268687 33.70736949 -18.74758471 36.9277474 -14 41 C-13.98541748 40.13834229 -13.97083496 39.27668457 -13.95581055 38.38891602 C-13.89427131 35.15125625 -13.82003217 31.91419072 -13.73754883 28.67700195 C-13.70456692 27.28355638 -13.67645433 25.88998578 -13.65356445 24.49633789 C-13.37363229 7.89695609 -13.37363229 7.89695609 -10 2 C-6.24952518 -0.50031654 -4.44143734 -0.53603554 0 0 Z M-41 53 C-47.57060009 63.69054393 -48.93652289 75.94813872 -46.31640625 88.1953125 C-44.29806567 93.67246909 -41.47595325 97.28591113 -37 101 C-32.9392547 102.35358177 -29.24531048 102.82031176 -25.12890625 101.31640625 C-19.68226882 98.49352534 -16.93789686 94.70195557 -14.91796875 88.8828125 C-12.63918106 79.24402542 -12.28783394 66.98059248 -16.72265625 57.953125 C-19.4188264 53.83054067 -22.21014695 50.59661768 -27 49 C-33.02661063 48.50601552 -36.38173487 48.68961921 -41 53 Z " fill="#A4743F" transform="translate(1622,641)"/>
<path d="M0 0 C0.66 0 1.32 0 2 0 C5.38371136 25.25114095 8.73221268 50.50680563 12.04434204 75.76742935 C12.3118839 77.80780143 12.57951973 79.84816116 12.84716797 81.88851929 C13.352944 85.74463692 13.85817823 89.6008254 14.36328125 93.45703125 C14.58948906 95.18253708 14.58948906 95.18253708 14.82026672 96.94290161 C15.56403125 102.62657328 16.29651121 108.31119841 17 114 C-9.01989838 114.13454999 -34.99296456 113.83663974 -61 113 C-56.30959649 103.46596745 -51.48473872 94.05031447 -46.30239868 84.77227783 C-44.55929544 81.65149053 -42.8271715 78.5246095 -41.09375 75.3984375 C-40.57171745 74.45791031 -40.57171745 74.45791031 -40.03913879 73.49838257 C-36.75011113 67.56575925 -33.52734447 61.59810502 -30.3125 55.625 C-26.09570443 47.79770725 -21.77752577 40.03676596 -17.375 32.3125 C-11.31476892 21.67911543 -5.59584674 10.88393041 0 0 Z " fill="#C70B04" transform="translate(996,287)"/>
<path d="M0 0 C3.38939556 2.13679285 4.72582557 3.1774767 6 7 C6.15346953 9.65606301 6.25717898 12.29095095 6.31640625 14.94921875 C6.33718735 15.72183548 6.35796844 16.49445221 6.37937927 17.29048157 C6.44471038 19.7560648 6.50368315 22.22175361 6.5625 24.6875 C6.60570087 26.36003691 6.64931566 28.03256319 6.69335938 29.70507812 C6.8003749 33.8032775 6.90168857 37.90158296 7 42 C7.76054687 41.22140625 8.52109375 40.4428125 9.3046875 39.640625 C15.05027782 34.01161187 19.72613492 31.85103074 27.6875 31.6875 C35.09235558 31.77129981 39.39717646 32.83476636 44.9296875 37.6953125 C53.11218999 46.08152875 53.45532213 56.22883479 53.3984375 67.453125 C53.40130768 68.71211609 53.40417786 69.97110718 53.40713501 71.26824951 C53.40916659 73.9141818 53.40523591 76.55926811 53.39111328 79.20507812 C53.37395224 82.583148 53.38392699 85.96050621 53.40183067 89.33855057 C53.41531033 92.58510052 53.40586139 95.83156576 53.3984375 99.078125 C53.40451019 100.28446594 53.41058289 101.49080688 53.4168396 102.73370361 C53.32919287 113.19287999 53.32919287 113.19287999 50 118 C47.40912377 120.20704271 45.20461259 120.10836519 41.9375 119.875 C39.05532684 119.42499527 38.21756385 119.21054566 36.0625 117.125 C34.3670475 113.734095 33.87141687 111.05884189 33.84228516 107.32006836 C33.83202301 106.37155502 33.82176086 105.42304169 33.81118774 104.44578552 C33.80388641 103.42082474 33.79658508 102.39586395 33.7890625 101.33984375 C33.76097649 99.16210208 33.73231193 96.98436782 33.703125 94.80664062 C33.66200592 91.37931666 33.62511302 87.95212822 33.59863281 84.5246582 C33.570836 81.21276343 33.52494656 77.90149356 33.4765625 74.58984375 C33.47330963 73.57905258 33.47005676 72.56826141 33.46670532 71.52684021 C33.3559548 65.03830727 32.61351833 59.00298107 30 53 C27.30221183 50.52095141 25.7075434 50.10766965 22.125 49.5625 C18.10052466 50.12592655 15.053408 51.35420714 12 54 C6.59537408 61.50461611 6.86019254 70.2613762 6.7890625 79.1328125 C6.76101591 81.09245658 6.73235163 83.05209191 6.703125 85.01171875 C6.66177126 88.07731074 6.62484835 91.14273499 6.59863281 94.20849609 C6.57103707 97.18360303 6.5251972 100.15798505 6.4765625 103.1328125 C6.47330963 104.04749298 6.47005676 104.96217346 6.46670532 105.90457153 C6.373182 110.7479425 6.14733433 114.06656357 3 118 C0.37115252 120.14202387 -1.79893143 120.11408927 -5.0625 119.875 C-7.94467316 119.42499527 -8.78243615 119.21054566 -10.9375 117.125 C-12.56423302 113.87153396 -13.1270934 111.28163597 -13.14717102 107.69340515 C-13.15432632 106.81446594 -13.16148163 105.93552673 -13.16885376 105.029953 C-13.17154266 104.06833755 -13.17423157 103.10672211 -13.17700195 102.1159668 C-13.18357315 101.10104156 -13.19014435 100.08611633 -13.19691467 99.04043579 C-13.21664996 95.67669605 -13.22831014 92.31300094 -13.23828125 88.94921875 C-13.24235678 87.80103983 -13.2464323 86.65286091 -13.25063133 85.46988869 C-13.27149193 79.3940715 -13.28579435 73.3182769 -13.29516602 67.24243164 C-13.3062371 60.96421203 -13.34064548 54.6863462 -13.38033772 48.40825176 C-13.40646848 43.58268062 -13.41485467 38.75719428 -13.41844749 33.93155861 C-13.42332171 31.61710022 -13.43495931 29.30264583 -13.45348549 26.98825645 C-13.47780335 23.74929021 -13.47692512 20.51124617 -13.4699707 17.2722168 C-13.48278076 16.31667404 -13.49559082 15.36113129 -13.50878906 14.37663269 C-13.46374557 8.62021153 -12.80862936 5.39903499 -9 1 C-5.89951072 -0.55024464 -3.42105782 -0.28992015 0 0 Z " fill="#A4743F" transform="translate(320,641)"/>
<path d="M0 0 C9.0676968 6.377488 15.74937855 14.1774398 17.8828125 25.32421875 C19.00025466 39.07028803 19.00025466 39.07028803 14.8828125 44.32421875 C11.96452619 46.11871867 9.79159549 46.57082095 6.38964844 46.55126953 C5.50903748 46.55111847 4.62842651 46.55096741 3.72113037 46.55081177 C2.30842865 46.53532791 2.30842865 46.53532791 0.8671875 46.51953125 C-0.10377869 46.51670135 -1.07474487 46.51387146 -2.07513428 46.51095581 C-5.17261135 46.49977167 -8.269798 46.47467017 -11.3671875 46.44921875 C-13.46874582 46.43918667 -15.57030868 46.43006122 -17.671875 46.421875 C-22.82042419 46.39983809 -27.96875663 46.3653202 -33.1171875 46.32421875 C-32.49559157 48.41676832 -31.86817067 50.50758819 -31.23828125 52.59765625 C-30.88950928 53.76216309 -30.5407373 54.92666992 -30.18139648 56.12646484 C-28.5931427 60.89887779 -26.79971876 63.83963235 -22.9921875 67.19921875 C-17.36663075 69.40052356 -12.11770842 69.13144649 -6.5546875 66.88671875 C-3.47110822 64.88420609 -1.13271372 62.30071617 1.3828125 59.63671875 C6.13783611 54.72778466 6.13783611 54.72778466 9.6953125 54.01171875 C12.8828125 54.32421875 12.8828125 54.32421875 15.3203125 55.76171875 C17.49439361 59.32721176 17.71164752 62.32545331 16.8828125 66.32421875 C13.27031776 74.8599364 6.40111208 80.16543258 -1.99609375 83.578125 C-12.19709756 87.16632339 -23.68022479 85.66326323 -33.4140625 81.29296875 C-42.94515535 75.82552014 -47.7091991 67.53410135 -51.1171875 57.32421875 C-54.59715458 42.22874917 -53.48008665 24.69092059 -45.3046875 11.38671875 C-35.42391134 -2.06690664 -15.41246429 -8.61284769 0 0 Z M-27.1171875 17.32421875 C-30.74118081 22.92319255 -32.1171875 26.52540761 -32.1171875 33.32421875 C-21.8871875 33.32421875 -11.6571875 33.32421875 -1.1171875 33.32421875 C-2.07934488 22.32728911 -2.07934488 22.32728911 -8.8046875 14.94921875 C-15.41948823 11.70422216 -21.66392505 12.11883186 -27.1171875 17.32421875 Z " fill="#A4743F" transform="translate(447.1171875,675.67578125)"/>
<path d="M0 0 C8.81322258 6.17238106 14.08576088 14.40490905 16 25 C17.08130811 37.70907342 17.08130811 37.70907342 13 43 C10.08337456 44.79698618 7.90819874 45.24659884 4.50683594 45.22705078 C3.62622498 45.22689972 2.74561401 45.22674866 1.83831787 45.22659302 C0.42561615 45.21110916 0.42561615 45.21110916 -1.015625 45.1953125 C-1.98659119 45.1924826 -2.95755737 45.18965271 -3.95794678 45.18673706 C-7.05542385 45.17555292 -10.1526105 45.15045142 -13.25 45.125 C-15.35155832 45.11496792 -17.45312118 45.10584247 -19.5546875 45.09765625 C-24.70323669 45.07561934 -29.85156913 45.04110145 -35 45 C-34.57195125 46.9060926 -34.13051906 48.80918239 -33.68359375 50.7109375 C-33.43923584 51.77103027 -33.19487793 52.83112305 -32.94311523 53.92333984 C-31.39942731 58.95920711 -28.62437567 63.35163181 -24.109375 66.1875 C-18.89334365 68.196638 -13.52008506 67.61336765 -8.4375 65.5625 C-5.35392072 63.55998734 -3.01552622 60.97649742 -0.5 58.3125 C4.25502361 53.40356591 4.25502361 53.40356591 7.8125 52.6875 C11 53 11 53 13.4375 54.5 C15.61543139 57.98469023 15.54217621 59.9336784 15 64 C12.64661087 71.4720105 7.43520437 76.52348994 0.69140625 80.2890625 C-9.41449136 85.02673457 -20.36190448 85.21655801 -31 82 C-40.48512481 78.02587242 -46.47906041 71.87727923 -50.95703125 62.72265625 C-56.12377759 49.23493267 -56.39690057 31.17467273 -51.26171875 17.625 C-46.60813053 7.94323132 -40.37703358 0.44607644 -30.0703125 -3.3046875 C-20.18870936 -5.54250602 -8.78712155 -5.43582884 0 0 Z M-31.25 19.1875 C-33.48934701 23.71398876 -33.48934701 23.71398876 -35 32 C-24.44 32 -13.88 32 -3 32 C-3.94907007 23.45836936 -4.43097878 19.23701925 -10.6875 13.5625 C-18.99916359 9.64190397 -25.92452468 11.64307663 -31.25 19.1875 Z " fill="#A4743F" transform="translate(1704,677)"/>
<path d="M0 0 C11.54330881 6.77404411 16.75551519 15.3486843 20.13671875 28.25390625 C20.71756669 30.99218938 20.95441291 33.42816577 21.13671875 36.25390625 C21.18828125 36.97449219 21.23984375 37.69507813 21.29296875 38.4375 C21.80328507 51.38677656 18.8544293 64.76448131 10.0625 74.56640625 C1.76352528 82.44536305 -7.15145825 85.6074055 -18.51171875 85.3984375 C-28.09349037 84.80952463 -36.58606472 81.15121418 -43.17578125 74.00390625 C-53.58211503 60.64960256 -53.98575136 45.47683156 -52.86328125 29.25390625 C-51.68858403 19.97211404 -47.29429076 11.97122783 -40.86328125 5.25390625 C-29.51931006 -3.46414568 -13.21064548 -6.43710569 0 0 Z M-26.546875 17.58984375 C-32.76565605 23.94819844 -33.9485179 32.60072574 -34.30078125 41.19140625 C-34.02166611 49.69883574 -32.44323786 58.41069999 -26.11328125 64.50390625 C-22.20666712 67.40492897 -18.7547019 68.88076793 -13.86328125 68.25390625 C-8.03654127 66.67560562 -4.88908478 63.66479686 -1.87109375 58.546875 C2.48619635 48.63319559 2.89914797 36.28385729 -0.55078125 26.00390625 C-2.96352511 20.43603581 -5.95297871 16.99347205 -11.48828125 14.44140625 C-17.32050097 12.38932894 -21.81824339 13.83765811 -26.546875 17.58984375 Z " fill="#A4743F" transform="translate(1391.86328125,675.74609375)"/>
<path d="M0 0 C8.68672627 6.79197054 13.93688309 17.77084601 15.3671875 28.609375 C16.47636912 43.52170561 15.3133959 58.43703489 5.86328125 70.6640625 C-0.13737015 77.24146362 -8.41952721 81.85820286 -17.421875 82.4453125 C-18.07285156 82.49558594 -18.72382812 82.54585937 -19.39453125 82.59765625 C-30.151065 83.07193022 -39.44143245 79.6683844 -47.421875 72.4453125 C-58.56129203 59.53317104 -59.56220813 43.71447947 -58.421875 27.4453125 C-56.84791166 16.41989123 -51.21426125 6.91091023 -42.58984375 -0.046875 C-30.16904967 -8.68548133 -12.56425703 -8.06544241 0 0 Z M-31.109375 13.85546875 C-37.77487477 21.17085474 -39.77221311 30.15783454 -39.640625 39.87890625 C-38.877472 48.8323263 -36.49312088 56.26097646 -30.171875 62.7578125 C-26.64043083 64.92483506 -23.51909931 65.76222488 -19.421875 65.4453125 C-14.15878303 63.82149102 -10.28290207 61.21369096 -7.421875 56.4453125 C-4.82996982 50.29542839 -3.90047121 44.65109825 -3.984375 38.0078125 C-3.99049805 37.17813965 -3.99662109 36.3484668 -4.00292969 35.49365234 C-4.16405924 29.17365571 -5.13224415 23.93945291 -8.421875 18.4453125 C-8.999375 17.4759375 -9.576875 16.5065625 -10.171875 15.5078125 C-16.00347704 10.1621773 -24.68192092 8.48437865 -31.109375 13.85546875 Z " fill="#A4743F" transform="translate(1011.421875,678.5546875)"/>
<path d="M0 0 C10.19586091 6.86738099 14.13333762 17.64604901 16.58203125 29.27734375 C17.61193772 43.43855777 16.51010637 57.91719914 7.83203125 69.71484375 C0.72725486 77.63579973 -7.54908694 82.2059193 -18.21875 82.8359375 C-28.14210747 83.12729687 -36.25027425 80.87305058 -44.16796875 74.71484375 C-50.39142489 68.59850389 -53.80971084 62.05534914 -56.16796875 53.71484375 C-56.34231445 53.10229736 -56.51666016 52.48975098 -56.69628906 51.85864258 C-59.85433243 37.50523741 -57.31064319 22.02690821 -50.41796875 9.27734375 C-47.37301677 4.58050533 -44.0023468 1.50223289 -39.16796875 -1.28515625 C-38.11029297 -1.90390625 -38.11029297 -1.90390625 -37.03125 -2.53515625 C-25.20183371 -8.31931906 -10.99724994 -6.51909051 0 0 Z M-30.8515625 15.05078125 C-36.94330463 21.27924577 -38.25023196 29.77426639 -38.54296875 38.21484375 C-38.21163189 47.3995016 -36.62437315 55.53094854 -29.9921875 62.21875 C-26.2629051 65.2772407 -23.40514212 65.75902851 -18.66796875 65.58984375 C-13.68162954 64.34325895 -10.48844653 62.85394656 -7.71875 58.3671875 C-2.53608957 48.28401721 -1.52630729 37.45028116 -3.88671875 26.328125 C-5.88419463 20.42429507 -8.25491095 15.83117744 -13.9375 12.7578125 C-20.38728202 9.78412353 -25.3675002 10.69915873 -30.8515625 15.05078125 Z " fill="#A4743F" transform="translate(682.16796875,678.28515625)"/>
<path d="M0 0 C6.15880611 0.10545901 6.15880611 0.10545901 9.21875 2.8515625 C10.64331074 5.41577183 11.72190906 7.93545704 12.78125 10.6640625 C13.66876953 9.83261719 13.66876953 9.83261719 14.57421875 8.984375 C15.36441406 8.25992188 16.15460938 7.53546875 16.96875 6.7890625 C17.74605469 6.06976562 18.52335937 5.35046875 19.32421875 4.609375 C25.95892684 -0.64354174 33.73130637 -0.01247532 41.78125 0.6640625 C48.04544447 2.26854176 52.29047319 6.34062787 55.78125 11.6640625 C60.62637873 20.5972686 59.93732119 31.63728477 59.94921875 41.51953125 C59.95421135 42.99925163 59.95421135 42.99925163 59.95930481 44.50886536 C59.96432627 46.57516011 59.96671463 48.64146283 59.96655273 50.70776367 C59.9687518 53.85413905 59.98699276 57.00017018 60.00585938 60.14648438 C60.00879189 62.16666548 60.01077763 64.18684823 60.01171875 66.20703125 C60.01890427 67.13742722 60.02608978 68.06782318 60.03349304 69.02641296 C60.01250322 75.06313383 59.83892724 81.30679963 56.59375 86.6015625 C53.65911997 88.32186286 51.15400324 88.54776066 47.78125 88.6640625 C44.13367414 87.33767128 43.04091868 86.13508485 41.16601562 82.73413086 C39.15802485 77.78703996 39.35925138 72.81080279 39.375 67.54296875 C39.36416382 66.48424057 39.35332764 65.42551239 39.34216309 64.33470154 C39.30802408 60.96525925 39.29233498 57.59615466 39.28125 54.2265625 C39.26663214 49.79004238 39.23286496 45.35426941 39.1875 40.91796875 C39.19052124 39.90940323 39.19354248 38.90083771 39.19665527 37.86170959 C39.13236884 31.7718823 38.38445702 27.19824397 35.78125 21.6640625 C33.46694328 19.48200188 32.03660335 18.72008232 28.85546875 18.578125 C24.09171106 18.91903421 21.13665204 20.1169232 17.78125 23.6640625 C14.94041367 28.53406764 13.66952289 32.65114438 13.62353516 38.24560547 C13.60814194 39.59753494 13.60814194 39.59753494 13.59243774 40.97677612 C13.58513641 41.9435025 13.57783508 42.91022888 13.5703125 43.90625 C13.54224674 45.96224758 13.5135823 48.01823707 13.484375 50.07421875 C13.44311441 53.30875444 13.40621682 56.54313839 13.37988281 59.77783203 C13.35223616 62.90428698 13.30636939 66.03005915 13.2578125 69.15625 C13.25455963 70.11892792 13.25130676 71.08160583 13.24795532 72.07345581 C13.15182658 77.33985016 12.74982235 81.12256973 9.78125 85.6640625 C6.75448413 88.27044422 5.23562166 88.65609107 1.21875 88.7265625 C-3.28040701 87.33591397 -4.02857393 85.7699439 -6.21875 81.6640625 C-6.59821131 78.99468992 -6.76792943 76.74444768 -6.73632812 74.08569336 C-6.7433374 73.3515773 -6.75034668 72.61746124 -6.75756836 71.86109924 C-6.77508204 69.44997619 -6.76355146 67.04003988 -6.75 64.62890625 C-6.75269656 62.94551876 -6.75658034 61.26213279 -6.76159668 59.57875061 C-6.76748246 56.05747592 -6.75895767 52.53660812 -6.74023438 49.01538086 C-6.71742746 44.50704342 -6.73058422 39.99965763 -6.75452423 35.49135494 C-6.76899231 32.01771397 -6.76437196 28.54429792 -6.75401306 25.0706501 C-6.75134946 23.4085027 -6.75460264 21.74633471 -6.76393127 20.08421135 C-6.77411595 17.75993773 -6.7585721 15.43719684 -6.73632812 13.11303711 C-6.74442505 12.42978363 -6.75252197 11.74653015 -6.76086426 11.04257202 C-6.67127839 5.97781112 -5.21965151 1.56221964 0 0 Z " fill="#A4743F" transform="translate(1054.21875,672.3359375)"/>
<path d="M0 0 C0.70441727 -0.00671722 1.40883453 -0.01343445 2.13459778 -0.02035522 C4.46431525 -0.03935975 6.79374498 -0.04326069 9.12353516 -0.04541016 C10.74394855 -0.0518367 12.36436078 -0.05856495 13.98477173 -0.06558228 C17.38261607 -0.07756138 20.78035869 -0.08126248 24.17822266 -0.08007812 C28.52852555 -0.07987497 32.87817493 -0.10717034 37.22832298 -0.14162254 C40.57582585 -0.16388048 43.92317122 -0.167916 47.27074051 -0.16685867 C48.87429684 -0.16921656 50.47785738 -0.17805076 52.08134079 -0.19352341 C54.32682537 -0.21316086 56.57089804 -0.2073555 58.81640625 -0.1953125 C60.09309174 -0.19816254 61.36977722 -0.20101257 62.68515015 -0.20394897 C66.61274278 0.37535959 68.26133458 1.50546675 71.03759766 4.29052734 C72.57684242 8.42724765 72.5038014 12.19494854 70.78759766 16.22802734 C68.48782586 18.93847268 66.89926391 20.21879253 63.31030273 20.51757812 C62.23675537 20.50710449 61.16320801 20.49663086 60.05712891 20.48583984 C58.31206055 20.47617187 58.31206055 20.47617187 56.53173828 20.46630859 C55.31679688 20.44955078 54.10185547 20.43279297 52.85009766 20.41552734 C51.62355469 20.40650391 50.39701172 20.39748047 49.13330078 20.38818359 C46.1012047 20.36458752 43.06949828 20.33166575 40.03759766 20.29052734 C40.04425949 21.37745377 40.05092133 22.46438019 40.05778503 23.58424377 C40.11866179 33.8391841 40.16360185 44.09408764 40.19303417 54.34916782 C40.20867442 59.62112028 40.22988286 64.89292657 40.26391602 70.16479492 C40.29656778 75.25466787 40.31446302 80.34440043 40.32222939 85.43437004 C40.32776243 87.37399441 40.33856715 89.3136113 40.35478783 91.25317574 C40.37663935 93.97485951 40.37956135 96.6959669 40.37817383 99.41772461 C40.38895966 100.21542267 40.39974548 101.01312073 40.41085815 101.83499146 C40.38218774 107.04954096 39.4754103 110.65698164 37.03759766 115.29052734 C34.72346398 117.4063067 33.21275539 118.21561689 30.07666016 118.41552734 C26.14754559 118.18182536 24.48630121 117.72772568 21.60009766 114.91552734 C18.80283822 110.2161315 18.9008332 106.089571 18.92407227 100.7800293 C18.92392624 99.91152344 18.92378021 99.04301758 18.92362976 98.14819336 C18.9243269 95.27503977 18.93211005 92.40195087 18.93994141 89.52880859 C18.94180629 87.53769466 18.94322986 85.54658026 18.94422913 83.5554657 C18.94804875 78.31280248 18.95787434 73.07016693 18.96893311 67.82751465 C18.97915912 62.47860081 18.9837293 57.12968251 18.98876953 51.78076172 C18.99949708 41.28400477 19.01656688 30.78726835 19.03759766 20.29052734 C18.27616455 20.31147461 17.51473145 20.33242188 16.73022461 20.35400391 C13.27031734 20.43730529 9.81062127 20.48923319 6.35009766 20.54052734 C5.15191406 20.57404297 3.95373047 20.60755859 2.71923828 20.64208984 C1.56230469 20.65498047 0.40537109 20.66787109 -0.78662109 20.68115234 C-1.84969482 20.70209961 -2.91276855 20.72304688 -4.00805664 20.74462891 C-7.68330929 20.1797194 -9.31511468 18.84546431 -11.96240234 16.29052734 C-13.49455122 13.22622958 -13.19178782 10.67396314 -12.96240234 7.29052734 C-9.98922433 0.91943161 -6.75781883 0.04040398 0 0 Z " fill="#A4743F" transform="translate(219.96240234375,642.70947265625)"/>
<path d="M0 0 C3.52024412 2.6963572 5.22524403 4.68242516 6 9 C6.0966532 10.57041679 6.14520101 12.14419076 6.15771484 13.7175293 C6.16797699 14.64917404 6.17823914 15.58081879 6.18881226 16.54069519 C6.19611359 17.54175797 6.20341492 18.54282074 6.2109375 19.57421875 C6.23901534 21.70768984 6.26767986 23.84115328 6.296875 25.97460938 C6.33804047 29.32738962 6.37494111 32.68002837 6.40136719 36.03295898 C6.42912586 39.27617706 6.47500534 42.51875201 6.5234375 45.76171875 C6.52669037 46.75266037 6.52994324 47.74360199 6.53329468 48.76457214 C6.65313831 55.61820703 7.02804422 63.11295725 12.1875 68.125 C16.0260901 69.31922803 19.2168991 69.19427303 23 68 C28.31525293 64.69050289 30.4728126 60.93734489 32 55 C32.39979974 51.46225878 32.41764884 47.95997773 32.40625 44.40234375 C32.41708618 43.40924698 32.42792236 42.41615021 32.43908691 41.39295959 C32.48466559 37.17599956 32.49640967 32.95910537 32.51123047 28.74194336 C32.52697125 25.64935764 32.55997436 22.55727672 32.59375 19.46484375 C32.59072876 18.51987534 32.58770752 17.57490692 32.58459473 16.6013031 C32.64809005 10.98338986 33.23732605 6.93815794 36 2 C39.66781672 -0.44521115 42.73453233 -0.72237759 47 0 C49.43119623 1.87015094 50.64069173 3.28138345 52 6 C52.11346536 8.38394889 52.16778315 10.73939462 52.17700195 13.12426758 C52.18357315 13.85779953 52.19014435 14.59133148 52.19691467 15.34709167 C52.21665817 17.77957253 52.22831267 20.21199162 52.23828125 22.64453125 C52.24235678 23.47493109 52.2464323 24.30533092 52.25063133 25.16089439 C52.27149675 29.55623502 52.2857963 33.95154438 52.29516602 38.34692383 C52.30623036 42.88665666 52.34062887 47.42589932 52.38033772 51.96545887 C52.40648505 55.45620128 52.41485617 58.94682658 52.41844749 62.43765831 C52.42331851 64.11100258 52.4349472 65.78434144 52.45348549 67.4575901 C52.47783744 69.80130448 52.47691973 72.14374663 52.4699707 74.48754883 C52.48278076 75.17708649 52.49559082 75.86662415 52.50878906 76.57705688 C52.4711512 80.06482282 52.0410135 81.9354054 50.15422058 84.9070282 C47.39817416 87.58471474 45.82267278 88 42 88 C37.97213947 86.56147838 36.54807673 84.49448343 34.6875 80.8125 C34.1110416 79.5479371 33.54378329 78.278954 33 77 C32.50371094 77.47050781 32.00742187 77.94101562 31.49609375 78.42578125 C23.25688157 85.97708957 17.55308321 87.33130143 6.62109375 87.3984375 C0.1766917 86.68934472 -3.82778508 83.83098569 -8 79 C-11.84150056 73.26353104 -13.11779607 68.7723816 -13.16113281 61.93383789 C-13.17074036 60.70899185 -13.1803479 59.48414581 -13.19024658 58.22218323 C-13.19449646 56.90233932 -13.19874634 55.58249542 -13.203125 54.22265625 C-13.20888101 52.85029601 -13.21463868 51.47793578 -13.22039795 50.10557556 C-13.23088735 47.23159411 -13.23674386 44.35764047 -13.24023438 41.48364258 C-13.24572297 37.80719878 -13.26976702 34.1311246 -13.29820633 30.45479679 C-13.31685765 27.62115919 -13.32203956 24.78761034 -13.32357025 21.95391655 C-13.32805517 19.94148851 -13.34668567 17.92910803 -13.36553955 15.91676331 C-13.36253845 14.68876511 -13.35953735 13.46076691 -13.35644531 12.19555664 C-13.36009094 11.11730118 -13.36373657 10.03904572 -13.36749268 8.92811584 C-12.94736526 5.58061583 -11.98993441 3.70081743 -10 1 C-6.77834396 -0.61082802 -3.48360411 -0.6006214 0 0 Z " fill="#A4743F" transform="translate(778,673)"/>
<path d="M0 0 C4.88141438 4.38101585 6.09077513 10.78811373 7.890625 16.86328125 C8.24010193 18.01040085 8.58957886 19.15752045 8.949646 20.33940125 C10.06038431 23.9939817 11.15536574 27.65306753 12.25 31.3125 C13.00156921 33.79523541 13.75416163 36.27766132 14.5078125 38.75976562 C16.35041765 44.83630605 18.18011821 50.91661794 20 57 C22.69713023 50.50467275 25.04907266 43.99305615 27.09375 37.265625 C27.65462562 35.45693128 28.21583323 33.64834047 28.77734375 31.83984375 C29.6434979 29.03456791 30.50658163 26.2284395 31.36376953 23.42041016 C32.20267706 20.67857992 33.05362296 17.94071483 33.90625 15.203125 C34.15741577 14.36863831 34.40858154 13.53415161 34.6673584 12.67437744 C36.17637048 7.86057232 37.75282519 3.90371587 41 0 C45.90758506 -0.85687993 47.79059106 -0.75588058 52 1.875 C54.85694484 6.33897631 54.61160836 9.80812921 54 15 C52.7382517 20.02797927 51.05172911 24.88286859 49.328125 29.765625 C48.84336624 31.17147727 48.35972322 32.57771471 47.87713623 33.98431396 C46.8677427 36.91581073 45.84811454 39.84346259 44.8203125 42.76855469 C43.508223 46.50398276 42.21754242 50.2463708 40.93385696 53.991642 C39.9386136 56.89031839 38.93451304 59.78586243 37.92751312 62.68047333 C37.44856203 64.05913435 36.97176329 65.43854518 36.49723053 66.81873322 C35.83127019 68.74979208 35.15405275 70.67653504 34.47363281 72.60253906 C33.90071503 74.24274017 33.90071503 74.24274017 33.31622314 75.91607666 C31.47503935 80.22998779 29.31933153 83.86390896 25.75 86.9375 C22.04831355 88.36769704 18.67019356 88.44583383 15 87 C10.91139558 83.45335168 9.05267598 80.4351482 7.30859375 75.33984375 C7.08153748 74.68946136 6.8544812 74.03907898 6.62054443 73.36898804 C5.87813544 71.22990914 5.1572531 69.0842981 4.4375 66.9375 C3.92387559 65.43546834 3.40929156 63.93376453 2.89379883 62.43237305 C1.8105044 59.26800808 0.73719339 56.10046703 -0.33007812 52.93066406 C-1.73271576 48.77300786 -3.1686418 44.62772489 -4.61549377 40.48527527 C-5.75319544 37.2208589 -6.87700471 33.95177482 -7.99752808 30.681427 C-8.53777927 29.11104697 -9.08259235 27.54222843 -9.6321106 25.97506714 C-10.4009979 23.77587238 -11.15000505 21.57082278 -11.89453125 19.36328125 C-12.12408508 18.71982758 -12.35363892 18.0763739 -12.59014893 17.41342163 C-14.06936473 12.9350003 -14.07962065 9.57599725 -13 5 C-9.20985152 -0.39809026 -6.21096529 -0.98586751 0 0 Z " fill="#A4743F" transform="translate(1440,673)"/>
<path d="M0 0 C3.55104382 0.07747732 4.14560345 0.40451761 7.125 2.75 C10.01945627 6.52156423 10.3106669 9.14429027 10.28515625 13.76171875 C10.28193359 14.78974609 10.27871094 15.81777344 10.27539062 16.87695312 C10.26701172 17.94880859 10.25863281 19.02066406 10.25 20.125 C10.24548828 21.20845703 10.24097656 22.29191406 10.23632812 23.40820312 C10.22453743 26.08469085 10.20808063 28.76106777 10.1875 31.4375 C10.94675781 31.40269531 11.70601562 31.36789062 12.48828125 31.33203125 C13.97908203 31.29142578 13.97908203 31.29142578 15.5 31.25 C16.48613281 31.21519531 17.47226562 31.18039062 18.48828125 31.14453125 C21.1875 31.4375 21.1875 31.4375 22.98828125 32.73828125 C24.97098938 35.54765596 25.07083809 38.05430456 25.1875 41.4375 C23.9375 44.3125 23.9375 44.3125 22.1875 46.4375 C19.30538698 47.39820434 17.48899956 47.54331883 14.5 47.5 C13.28763672 47.48646484 13.28763672 47.48646484 12.05078125 47.47265625 C11.43589844 47.46105469 10.82101562 47.44945312 10.1875 47.4375 C10.27981915 54.05803618 10.38713152 60.67820747 10.50488281 67.29833984 C10.54317157 69.55056236 10.57802461 71.802846 10.609375 74.05517578 C10.65502737 77.29221447 10.71302215 80.52883236 10.7734375 83.765625 C10.79076431 85.27675873 10.79076431 85.27675873 10.80844116 86.81842041 C10.82831085 87.75909363 10.84818054 88.69976685 10.86865234 89.66894531 C10.88197601 90.49501282 10.89529968 91.32108032 10.9090271 92.17218018 C11.21222816 94.63865851 11.95466538 96.29659429 13.1875 98.4375 C14.16332031 98.40269531 15.13914062 98.36789062 16.14453125 98.33203125 C17.41683594 98.30496094 18.68914063 98.27789063 20 98.25 C21.26457031 98.21519531 22.52914062 98.18039062 23.83203125 98.14453125 C27.1875 98.4375 27.1875 98.4375 29.08203125 99.7734375 C30.79656219 102.35432154 31.06649834 104.35195772 31.1875 107.4375 C29.88301075 111.35096776 28.85798681 113.0054085 25.375 115.25 C17.16652911 118.30805778 8.43218224 118.55135166 0.19921875 115.4765625 C-4.12377655 113.24371444 -6.19292601 110.05876828 -7.92919922 105.51538086 C-9.37715338 100.09315065 -9.05801334 94.51005122 -9.0078125 88.94140625 C-9.0049826 87.75272446 -9.00215271 86.56404266 -8.99923706 85.33934021 C-8.98808206 81.55945582 -8.96298566 77.77981224 -8.9375 74 C-8.92746417 71.43034197 -8.91833937 68.86068022 -8.91015625 66.29101562 C-8.88815801 60.00642887 -8.85472689 53.72198165 -8.8125 47.4375 C-9.74320313 47.48132813 -10.67390625 47.52515625 -11.6328125 47.5703125 C-14.8125 47.4375 -14.8125 47.4375 -17.6875 45.3125 C-19.8125 42.4375 -19.8125 42.4375 -20.375 39.4375 C-19.66159176 35.63265606 -18.7361459 33.9863195 -15.8125 31.4375 C-12.16015625 31.3046875 -12.16015625 31.3046875 -8.8125 31.4375 C-8.83606567 30.38622925 -8.83606567 30.38622925 -8.86010742 29.3137207 C-8.92262412 26.12589649 -8.96154381 22.93820149 -9 19.75 C-9.02513672 18.64720703 -9.05027344 17.54441406 -9.07617188 16.40820312 C-9.08583984 15.34150391 -9.09550781 14.27480469 -9.10546875 13.17578125 C-9.1211792 12.19649658 -9.13688965 11.21721191 -9.15307617 10.20825195 C-8.45377135 4.51906884 -5.72348741 0.65679364 0 0 Z " fill="#A4743F" transform="translate(867.8125,643.5625)"/>
<path d="M0 0 C3.61817787 0.07562108 4.3214593 0.16431337 7.125 2.6875 C8.41912753 5.06006714 9.04896796 6.84535584 9.625 9.4375 C10.01171875 8.95539062 10.3984375 8.47328125 10.796875 7.9765625 C11.31765625 7.34492187 11.8384375 6.71328125 12.375 6.0625 C12.88546875 5.43601562 13.3959375 4.80953125 13.921875 4.1640625 C17.24098087 0.79928086 20.22215904 0.12896916 24.875 0.0625 C31.31758407 0.18308312 35.73797378 2.00157163 40.625 6.125 C42.24851119 9.87936964 42.23802127 13.42434912 41.625 17.4375 C40.1875 20.5625 40.1875 20.5625 37.625 22.4375 C34.52994535 22.60775841 31.65234389 22.04496045 28.625 21.4375 C23.19031389 20.39560315 23.19031389 20.39560315 17.8125 21.4375 C12.78716975 26.03208765 12.05471927 32.48368381 11.5 38.9375 C11.37890869 40.18587646 11.37890869 40.18587646 11.25537109 41.45947266 C10.75992891 47.11316427 10.5376678 52.75691955 10.421875 58.4296875 C10.39850571 59.46570099 10.39850571 59.46570099 10.37466431 60.52264404 C10.29881115 63.98233195 10.24573652 67.43990179 10.22998047 70.90039062 C10.20822754 72.17849609 10.18647461 73.45660156 10.1640625 74.7734375 C10.15173584 76.48345947 10.15173584 76.48345947 10.13916016 78.22802734 C9.51165381 82.14502567 8.06740439 84.34803113 5.625 87.4375 C2.96437459 88.71756232 0.54364715 88.78564877 -2.375 88.4375 C-6.48989274 86.11169106 -7.96977916 83.85757989 -9.375 79.4375 C-9.63569641 76.2258606 -9.63569641 76.2258606 -9.6496582 72.55517578 C-9.65476913 71.88293976 -9.65988007 71.21070374 -9.66514587 70.51809692 C-9.67899204 68.30624367 -9.67808873 66.09470382 -9.67578125 63.8828125 C-9.6796713 62.33730963 -9.68400661 60.79180781 -9.68876648 59.24630737 C-9.69621826 56.01003552 -9.69594528 52.77387278 -9.69067383 49.53759766 C-9.68488461 45.40287708 -9.70180169 41.26860525 -9.7250185 37.13395882 C-9.7397957 33.94250911 -9.74062207 30.75116643 -9.73750877 27.55968857 C-9.73802012 26.03594958 -9.74322263 24.5122043 -9.75332069 22.98849869 C-9.76574398 20.8515792 -9.75885902 18.71552038 -9.74731445 16.57861328 C-9.74794388 15.36569611 -9.7485733 14.15277893 -9.7492218 12.90310669 C-9.06159582 6.53511535 -7.22994625 0.20416792 0 0 Z " fill="#A4743F" transform="translate(1751.375,672.5625)"/>
<path d="M0 0 C3.61817787 0.07562108 4.3214593 0.16431337 7.125 2.6875 C8.41912753 5.06006714 9.04896796 6.84535584 9.625 9.4375 C10.01171875 8.95539062 10.3984375 8.47328125 10.796875 7.9765625 C11.31765625 7.34492187 11.8384375 6.71328125 12.375 6.0625 C12.88546875 5.43601562 13.3959375 4.80953125 13.921875 4.1640625 C17.24098087 0.79928086 20.22215904 0.12896916 24.875 0.0625 C31.31758407 0.18308312 35.73797378 2.00157163 40.625 6.125 C42.25193722 9.88729231 42.36675787 13.42202232 41.625 17.4375 C39.625 20.5625 39.625 20.5625 36.625 22.4375 C33.68925641 22.34124611 31.435989 22.07023184 28.625 21.4375 C24.77231761 20.68402337 21.61034434 20.08715534 17.8125 21.4375 C10.73738872 27.90617317 11.13350077 39.51760581 10.625 48.4375 C10.53324461 51.21779064 10.45206153 53.99647474 10.38671875 56.77734375 C10.36877258 57.51180725 10.35082642 58.24627075 10.33233643 59.00299072 C10.24510527 62.72718344 10.17889539 66.45026044 10.14208984 70.17529297 C10.11716142 71.57129444 10.09194563 72.96729082 10.06640625 74.36328125 C10.05295166 75.60505127 10.03949707 76.84682129 10.02563477 78.1262207 C9.51590889 82.33914698 8.23898255 85.16937085 4.875 87.8125 C1.44292041 88.76585544 -0.95322616 88.35404656 -4.375 87.4375 C-8.96956695 82.84293305 -9.50071489 79.08860228 -9.53613281 72.78222656 C-9.54109772 72.11028259 -9.54606262 71.43833862 -9.55117798 70.74603271 C-9.56577981 68.52338636 -9.57259922 66.30081144 -9.578125 64.078125 C-9.58387927 62.5297648 -9.58963697 60.98140461 -9.59539795 59.43304443 C-9.60590313 56.18485177 -9.61174856 52.93668382 -9.61523438 49.68847656 C-9.62070989 45.53803452 -9.64471952 41.38792206 -9.67320633 37.23758316 C-9.69188698 34.03756781 -9.69704124 30.83763087 -9.69857025 27.63756561 C-9.70158644 26.1082352 -9.70957991 24.57890584 -9.72275543 23.04962921 C-9.73992589 20.90295323 -9.73790922 18.75706948 -9.73144531 16.61035156 C-9.73509094 15.39140198 -9.73873657 14.17245239 -9.74249268 12.91656494 C-9.06927074 6.54315129 -7.23552995 0.2043256 0 0 Z " fill="#A4743F" transform="translate(1289.375,672.5625)"/>
<path d="M0 0 C2.63016161 2.1727422 4.47336894 3.94673788 6 7 C6.0979326 8.39279304 6.13501041 9.79011909 6.14044189 11.18634033 C6.14900711 12.50268715 6.14900711 12.50268715 6.15774536 13.84562683 C6.15886322 14.81083755 6.15998108 15.77604828 6.16113281 16.77050781 C6.16609772 17.78528702 6.17106262 18.80006622 6.17617798 19.84559631 C6.19082556 23.21477936 6.19760646 26.5839153 6.203125 29.953125 C6.20887498 32.29001874 6.21463273 34.62691245 6.22039795 36.96380615 C6.23091579 41.86991598 6.23675311 46.77600938 6.24023438 51.68212891 C6.24571611 57.96815961 6.26973419 64.25397337 6.29820633 70.53993607 C6.31683383 75.3697981 6.32203841 80.19960794 6.32357025 85.02950287 C6.32659781 87.34674005 6.33462977 89.6639763 6.34775543 91.98117828 C6.36481541 95.22492433 6.36293538 98.46814132 6.35644531 101.71191406 C6.3656601 102.66902786 6.37487488 103.62614166 6.3843689 104.61225891 C6.35165919 109.83276889 5.92857689 113.48499331 3 118 C0.35555365 120.17222379 -1.02987018 119.99893321 -4.5 119.875 C-8.30972781 118.92256805 -9.64628244 118.07793835 -12 115 C-12.923969 112.228093 -13.13115967 110.55492139 -13.14717102 107.69340515 C-13.15432632 106.81446594 -13.16148163 105.93552673 -13.16885376 105.029953 C-13.17154266 104.06833755 -13.17423157 103.10672211 -13.17700195 102.1159668 C-13.18357315 101.10104156 -13.19014435 100.08611633 -13.19691467 99.04043579 C-13.21664996 95.67669605 -13.22831014 92.31300094 -13.23828125 88.94921875 C-13.24235678 87.80103983 -13.2464323 86.65286091 -13.25063133 85.46988869 C-13.27149193 79.3940715 -13.28579435 73.3182769 -13.29516602 67.24243164 C-13.3062371 60.96421203 -13.34064548 54.6863462 -13.38033772 48.40825176 C-13.40646848 43.58268062 -13.41485467 38.75719428 -13.41844749 33.93155861 C-13.42332171 31.61710022 -13.43495931 29.30264583 -13.45348549 26.98825645 C-13.47780335 23.74929021 -13.47692512 20.51124617 -13.4699707 17.2722168 C-13.48278076 16.31667404 -13.49559082 15.36113129 -13.50878906 14.37663269 C-13.46374557 8.62021153 -12.80862936 5.39903499 -9 1 C-5.86128812 -0.56935594 -3.46144178 -0.35201103 0 0 Z " fill="#A4743F" transform="translate(733,641)"/>
<path d="M0 0 C3.84821565 2.63298966 4.77401368 5.61461381 6 10 C6.25396729 13.21800232 6.25396729 13.21800232 6.25878906 16.72045898 C6.26509338 18.03880234 6.27139771 19.35714569 6.27789307 20.71543884 C6.27431258 22.14232518 6.27021045 23.56921029 6.265625 24.99609375 C6.26697391 26.47290613 6.26891632 27.94971807 6.27142334 29.42652893 C6.27436491 32.51559697 6.2701088 35.60454901 6.26074219 38.69360352 C6.2493582 42.63876573 6.25590648 46.58365545 6.26788712 50.52880764 C6.27514047 53.57699101 6.27280172 56.6251106 6.26763153 59.67329597 C6.26630411 61.1272491 6.2679107 62.58120815 6.27259064 64.03515434 C6.27771223 66.07363931 6.26986727 68.11169332 6.25878906 70.15014648 C6.25640228 71.88505592 6.25640228 71.88505592 6.25396729 73.65501404 C5.92480137 77.99043603 5.16482579 82.16080138 2.8125 85.875 C-0.10398007 87.68522901 -2.60171539 87.88281777 -6 88 C-9.79897531 86.61855443 -10.78036125 85.43298256 -12.61636353 81.81359863 C-14.10274753 78.15565343 -14.38022202 74.94896311 -14.38818359 70.98242188 C-14.39344055 70.31964737 -14.39869751 69.65687286 -14.40411377 68.97401428 C-14.41720783 66.80534582 -14.40861424 64.63742459 -14.3984375 62.46875 C-14.4004613 60.9485256 -14.40337528 59.42830215 -14.40713501 57.90808105 C-14.411544 54.7307811 -14.40517362 51.55373514 -14.39111328 48.37646484 C-14.374022 44.31799854 -14.38387089 40.26012755 -14.40183067 36.20168304 C-14.41270729 33.06512015 -14.40920448 29.92869677 -14.4014473 26.79212952 C-14.39945599 25.2963097 -14.40186673 23.80047692 -14.40888596 22.30467224 C-14.41656494 20.20863626 -14.40480826 18.11354437 -14.38818359 16.01757812 C-14.38579681 14.82845825 -14.38341003 13.63933838 -14.38095093 12.41418457 C-13.92091212 8.29119314 -12.91857981 5.67557944 -11 2 C-7.31650823 -0.45566118 -4.27880844 -0.6915246 0 0 Z " fill="#A4743F" transform="translate(1528,673)"/>
<path d="M0 0 C2.43119623 1.87015094 3.64069173 3.28138345 5 6 C5.11285667 8.33688771 5.15941876 10.67705639 5.17700195 13.01660156 C5.18357315 13.73877365 5.19014435 14.46094574 5.19691467 15.20500183 C5.21665981 17.60021058 5.22831399 19.99535654 5.23828125 22.390625 C5.24235678 23.20874413 5.2464323 24.02686325 5.25063133 24.86977386 C5.27149901 29.20142871 5.28579669 33.53305183 5.29516602 37.86474609 C5.30622142 42.33488212 5.34060892 46.80451911 5.38033772 51.27447891 C5.40651142 54.71464958 5.41485859 58.1547016 5.41844749 61.59496307 C5.42331291 63.24236159 5.43492571 64.88975482 5.45348549 66.53705597 C5.47789007 68.84704318 5.47690998 71.15574308 5.4699707 73.46582031 C5.47877007 75.43533661 5.47877007 75.43533661 5.48774719 77.44464111 C4.91793069 81.59823176 3.61695302 83.76454993 1 87 C-1.66062541 88.28006232 -4.08135285 88.34814877 -7 88 C-11.11489274 85.67419106 -12.59477916 83.42007989 -14 79 C-14.26069641 75.7883606 -14.26069641 75.7883606 -14.2746582 72.11767578 C-14.27976913 71.44543976 -14.28488007 70.77320374 -14.29014587 70.08059692 C-14.30399204 67.86874367 -14.30308873 65.65720382 -14.30078125 63.4453125 C-14.3046713 61.89980963 -14.30900661 60.35430781 -14.31376648 58.80880737 C-14.32121826 55.57253552 -14.32094528 52.33637278 -14.31567383 49.10009766 C-14.30988461 44.96537708 -14.32680169 40.83110525 -14.3500185 36.69645882 C-14.3647957 33.50500911 -14.36562207 30.31366643 -14.36250877 27.12218857 C-14.36302012 25.59844958 -14.36822263 24.0747043 -14.37832069 22.55099869 C-14.39074398 20.4140792 -14.38385902 18.27802038 -14.37231445 16.14111328 C-14.37294388 14.92819611 -14.3735733 13.71527893 -14.3742218 12.46560669 C-13.92515185 8.30684354 -12.93805945 5.70169407 -11 2 C-7.33218328 -0.44521115 -4.26546767 -0.72237759 0 0 Z " fill="#A4743F" transform="translate(926,673)"/>
<path d="M0 0 C3.52519462 0.86883585 4.91788608 2.54462407 6.93359375 5.4765625 C8.33857802 9.64788226 8.29802941 13.23593203 6.74609375 17.3515625 C4.93359375 20.4765625 4.93359375 20.4765625 3.12109375 21.9140625 C-0.94388833 22.95934361 -3.93734533 22.96411153 -7.81640625 21.2890625 C-10.58615209 19.05787835 -11.30928276 17.95933055 -12.06640625 14.4765625 C-12.21432234 9.69104207 -11.7056395 6.42572702 -9.00390625 2.4140625 C-5.71504392 0.24481288 -3.87036036 -0.27802211 0 0 Z " fill="#A4743F" transform="translate(1526.06640625,641.5234375)"/>
<path d="M0 0 C1.9375 0.4609375 1.9375 0.4609375 4.9375 2.2109375 C7.97637509 7.14910952 8.03578931 11.82149449 6.9375 17.4609375 C5.20237599 20.32714917 4.05221582 20.84589967 0.9375 22.4609375 C-2.64779195 23.04629129 -4.48945729 22.70838776 -7.8125 21.2734375 C-10.58224584 19.04225335 -11.30537651 17.94370555 -12.0625 14.4609375 C-12.21041609 9.67541707 -11.70173325 6.41010202 -9 2.3984375 C-5.71478467 0.23159335 -3.86785148 -0.30767 0 0 Z " fill="#A4743F" transform="translate(924.0625,641.5390625)"/>
</svg>
